<?xml version="1.0" encoding="utf-8"?>
<!-- Generator: dithermaster 0.1 --><svg version="1.1" id="Layer_1" xmlns="http://www.w3.org/2000/svg" xmlns:xlink="http://www.w3.org/1999/xlink" x="0px" y="0px"
viewBox="0 0 1000 1000" style="enable-background:new 0 0 1000 1000;" xml:space="preserve">
<style type="text/css">
.st0{fill:none;stroke:#C82100;stroke-miterlimit:10;}
</style>
<path class="st0" d="M501.00,500.00L501.00,500.00L500.03,499.75L500.10,499.49L500.26,499.17L500.46,498.90L500.65,498.81L500.85,498.76L501.19,498.58L501.69,498.36L502.09,498.34L502.26,498.55L502.45,498.75L502.99,498.84L503.70,498.97L504.06,499.30L503.97,499.72L504.00,500.12L504.56,500.59L505.21,501.22L505.25,501.79L504.77,502.18L504.55,502.66L504.87,503.55L505.12,504.58L504.69,505.12L503.88,505.20L503.37,505.61L503.20,506.77L502.81,507.90L501.99,508.07L501.09,507.64L500.33,507.84L499.48,508.96L498.44,509.77L497.54,509.32L496.87,508.36L495.94,508.23L494.44,508.90L493.03,509.02L492.48,507.94L492.34,506.62L491.37,506.06L489.51,505.90L488.20,505.16L488.39,503.75L488.93,502.39L488.13,501.34L486.39,500.17L485.72,498.75L486.81,497.50L487.98,496.44L487.61,494.94L486.58,492.88L486.88,491.26L488.71,490.73L490.29,490.25L490.62,488.48L490.76,486.00L492.03,484.81L494.10,485.37L495.81,485.60L497.02,483.90L498.47,481.69L500.31,481.50L501.97,483.20L503.50,484.11L505.59,482.96L508.08,481.75L509.79,482.78L510.43,485.29L511.54,486.75L514.23,486.63L517.08,486.90L517.92,488.92L517.21,491.60L517.74,493.44L520.47,494.69L522.80,496.46L522.25,498.80L520.23,500.93L520.08,502.95L522.12,505.55L523.14,508.34L521.16,510.12L518.26,511.09L517.35,513.08L517.98,516.62L517.29,519.53L514.38,519.94L511.27,519.46L509.57,521.15L508.35,524.81L506.14,526.84L503.20,525.48L500.59,523.62L498.14,524.68L495.14,527.45L492.14,527.84L490.20,524.87L488.65,522.05L485.68,522.09L481.51,523.09L478.81,521.63L478.69,517.79L478.47,514.59L475.40,513.30L471.14,512.05L469.80,509.20L471.78,505.59L472.87,502.60L470.35,499.87L467.23,496.57L467.88,493.34L471.61,491.08L473.75,488.76L472.54,484.84L471.53,480.34L474.11,478.00L478.68,477.85L481.51,476.49L482.22,472.04L483.72,467.66L487.43,467.23L491.65,469.39L494.81,469.10L497.68,465.15L501.27,462.24L504.82,464.16L507.58,468.16L510.74,469.00L515.44,466.66L519.99,466.16L522.01,470.05L522.60,474.93L525.43,476.91L531.00,477.06L535.02,479.14L534.55,483.86L532.84,488.49L534.96,491.55L540.02,494.48L542.13,498.43L538.98,502.45L535.42,505.82L536.35,509.78L539.48,514.99L538.91,519.42L533.78,521.31L529.20,522.80L528.46,527.21L528.64,533.46L525.55,536.72L519.85,535.66L515.17,535.11L512.48,539.24L509.46,544.84L504.95,545.65L500.33,541.66L496.37,539.36L491.79,542.23L486.30,545.56L482.03,543.46L479.92,537.46L477.19,533.91L471.34,534.58L464.93,534.61L462.59,530.18L463.70,523.72L462.46,519.48L456.48,517.32L451.05,514.01L451.75,508.72L455.91,503.48L456.22,499.07L451.56,494.10L448.79,488.48L452.62,484.23L458.81,481.54L460.65,477.40L458.72,470.45L459.45,464.35L465.41,462.83L472.13,463.30L475.43,459.88L477.08,452.50L481.02,447.94L487.27,450.03L492.99,453.45L497.58,451.26L502.76,445.36L508.51,443.90L512.97,449.31L516.53,454.78L522.04,454.43L529.64,451.71L535.12,453.85L536.18,461.20L537.04,467.49L542.74,469.47L550.82,470.88L553.99,475.87L551.02,483.08L549.28,488.96L554.09,493.46L560.42,498.77L560.01,504.79L553.58,509.73L549.80,514.30L552.48,520.94L555.22,528.72L551.18,533.51L542.91,534.67L537.84,537.41L537.33,545.13L535.65,553.12L529.27,554.73L521.31,551.68L515.70,552.41L511.52,559.55L505.97,565.36L499.44,562.86L493.84,556.33L488.32,555.10L480.92,559.80L473.28,561.66L469.01,555.54L467.12,547.16L462.23,544.04L453.05,544.80L445.83,542.20L445.61,534.25L447.75,526.01L444.05,521.18L435.27,517.35L430.88,511.29L435.22,504.01L440.72,497.74L438.87,491.50L432.85,483.70L432.75,476.35L440.70,472.22L448.16,469.06L448.83,462.05L447.36,452.12L451.55,446.15L460.94,446.74L468.76,447.01L472.42,440.29L476.11,430.86L483.06,428.51L491.19,433.98L497.95,437.27L504.57,432.26L512.51,425.96L519.65,428.24L524.12,437.32L528.89,442.75L537.66,440.89L547.62,439.56L552.23,445.85L551.66,456.18L554.01,462.77L563.34,465.11L572.38,469.10L572.49,477.30L566.95,486.19L566.84,493.06L574.58,499.74L579.98,507.74L575.13,514.96L566.03,520.17L563.56,526.61L567.57,536.61L567.75,546.01L559.20,549.51L548.80,549.89L544.17,555.26L542.98,566.43L538.05,574.12L528.40,572.30L519.13,567.98L512.60,571.59L506.04,581.14L497.82,584.59L490.20,577.51L483.99,569.74L476.08,570.81L465.49,576.11L456.95,574.20L454.00,563.66L451.82,554.30L443.49,552.13L431.50,551.54L425.76,545.01L428.74,533.99L430.59,524.95L423.25,519.19L413.12,512.69L412.35,503.95L420.77,495.64L425.86,488.42L421.21,479.47L415.81,468.80L420.48,461.10L432.19,457.96L439.36,453.42L438.98,442.59L439.84,430.83L448.48,427.19L460.42,430.20L468.48,428.62L473.23,418.08L479.99,408.73L489.62,410.84L498.72,419.25L506.70,420.55L516.22,412.90L526.66,408.73L533.82,416.34L537.87,427.99L544.99,431.96L557.53,429.46L568.21,431.62L570.09,442.55L568.33,454.58L573.85,460.93L586.54,464.77L593.95,472.31L589.38,483.12L582.53,492.83L585.64,501.14L595.19,510.84L596.91,520.99L586.79,528.12L576.70,533.64L576.54,543.15L580.24,556.48L575.78,565.58L562.86,566.47L551.83,567.13L547.71,576.53L544.33,590.04L535.39,594.74L523.36,588.71L513.49,584.94L505.32,592.44L495.64,602.41L485.53,600.87L477.91,589.30L470.66,582.28L459.29,585.92L446.03,589.52L438.56,582.09L437.60,567.99L433.68,559.14L421.03,557.37L408.08,553.65L406.27,542.79L412.31,529.87L411.82,520.49L400.64,512.82L391.85,503.06L396.83,492.59L408.30,484.10L411.04,475.22L404.26,462.68L402.19,450.11L412.77,443.88L426.74,441.75L432.39,434.22L432.22,419.38L437.27,408.13L450.25,408.74L463.38,413.17L471.58,407.82L478.66,394.26L488.87,388.03L500.09,395.91L509.57,405.47L519.70,403.26L532.70,394.60L544.34,395.38L550.04,408.60L554.24,420.87L565.21,422.72L580.96,421.51L589.81,428.86L587.81,443.73L586.50,456.07L596.60,462.54L610.90,469.32L613.69,480.49L604.14,492.71L598.23,502.95L605.30,513.77L614.17,526.74L609.71,537.58L595.00,543.58L586.02,550.41L587.96,564.14L588.90,579.57L578.58,585.93L562.59,583.93L552.15,586.85L547.60,600.91L540.51,614.24L527.84,613.40L514.72,603.92L504.20,603.01L493.23,614.10L480.51,621.38L470.01,613.08L462.98,598.59L453.43,594.17L437.91,599.20L423.74,598.41L419.39,584.94L419.88,569.08L412.24,561.54L395.59,558.62L384.64,550.35L388.51,535.91L395.97,522.34L391.20,512.19L377.61,501.42L373.44,488.78L384.96,478.06L397.25,469.51L396.42,457.62L389.63,441.36L393.49,428.93L409.60,425.63L423.78,423.32L427.80,411.15L429.89,393.55L440.23,385.85L456.35,391.46L469.56,395.08L478.75,384.78L489.31,370.61L502.28,370.54L513.72,383.86L523.87,392.03L537.45,386.07L553.55,379.30L564.29,387.09L567.72,404.65L573.71,415.55L589.56,416.03L606.50,418.50L610.81,431.57L605.21,448.76L606.79,460.63L621.63,468.53L634.40,479.25L630.20,493.06L617.07,505.48L614.49,516.93L624.64,531.40L629.48,546.79L617.62,556.35L600.37,561.09L594.04,571.01L596.44,589.26L592.19,604.26L576.16,605.78L559.01,602.11L549.43,609.49L542.74,627.26L531.20,636.94L516.11,629.21L502.85,618.51L490.70,622.24L476.02,634.89L461.44,636.17L452.26,620.93L445.32,606.07L431.80,605.01L412.61,608.97L400.27,601.63L400.30,583.10L400.35,567.42L387.39,560.77L368.71,554.71L363.12,541.57L372.87,525.09L379.04,511.51L369.17,499.33L356.16,484.82L359.50,470.77L376.57,461.12L387.04,451.55L382.93,435.26L379.21,416.45L390.49,406.80L410.39,406.79L423.09,402.05L426.68,384.52L433.13,366.94L448.54,365.60L466.06,375.25L479.16,375.34L490.82,360.47L505.17,349.32L519.27,357.41L530.04,374.15L542.15,378.66L560.12,370.39L577.61,368.84L585.18,384.23L586.87,403.77L596.84,412.20L617.32,413.29L632.20,421.39L630.03,439.34L622.76,457.06L629.48,468.80L647.45,479.75L654.88,494.34L642.87,509.08L628.92,521.27L631.14,535.38L641.79,553.94L639.48,569.71L620.72,576.27L603.59,580.98L600.15,595.86L600.36,617.40L589.40,628.64L569.19,624.49L552.50,621.68L542.82,634.94L532.33,653.68L516.83,656.25L501.04,642.07L487.62,633.22L472.31,641.94L453.99,652.70L439.75,645.47L432.94,624.91L424.42,612.22L405.65,613.70L384.82,613.51L377.31,598.84L381.44,577.36L378.32,563.06L359.73,555.72L342.55,544.96L345.01,527.91L358.96,511.04L360.99,496.96L347.01,481.26L338.52,463.58L350.81,450.25L370.89,442.06L377.54,429.58L372.13,408.36L374.58,389.59L393.16,385.07L414.34,387.08L425.02,377.41L430.36,355.45L442.42,341.75L461.44,348.33L478.90,359.43L492.84,353.83L508.34,336.70L525.50,332.47L538.75,348.90L549.10,365.93L565.02,365.75L587.16,358.17L603.18,364.56L606.09,386.36L608.01,405.31L623.86,411.62L646.92,415.93L656.00,430.38L647.09,451.29L641.27,468.44L654.18,481.44L671.88,496.60L670.61,513.72L651.96,527.69L640.42,540.41L647.21,558.83L654.63,580.54L643.25,593.90L619.77,596.89L605.01,603.93L603.09,624.75L598.32,646.66L580.66,651.00L558.54,642.17L542.87,643.36L531.29,662.19L516.15,677.82L498.39,670.93L483.23,652.67L468.45,648.46L448.68,660.54L428.24,665.38L416.84,648.87L412.09,625.95L399.59,616.97L375.60,618.57L356.58,611.63L356.10,590.50L362.29,568.47L353.35,555.44L330.83,545.26L319.44,529.40L330.94,510.40L345.89,494.05L341.92,477.95L326.77,457.87L326.57,438.93L347.26,428.36L367.04,420.56L369.41,403.06L365.94,377.95L376.64,362.77L400.71,364.45L420.93,365.74L430.54,349.43L439.94,325.92L457.44,320.04L477.93,334.10L494.94,343.07L511.45,331.25L531.19,315.82L548.96,321.52L559.95,344.39L571.46,358.54L592.79,354.51L617.18,351.40L628.49,366.90L626.83,392.51L631.98,409.11L654.23,415.13L676.09,424.92L676.30,444.87L662.46,466.55L661.42,483.30L679.55,499.45L692.45,518.71L680.70,536.05L658.40,548.47L651.80,563.63L660.91,587.27L661.28,609.61L640.83,617.89L615.76,618.46L604.31,630.62L601.25,656.63L589.60,674.72L566.82,670.31L544.85,659.66L529.40,667.40L514.01,689.35L494.84,697.36L477.09,680.70L462.72,662.06L444.58,663.88L420.18,675.84L400.47,671.40L393.75,646.92L389.11,624.88L370.43,619.43L343.19,617.90L330.06,602.95L337.07,577.64L341.87,556.77L325.75,543.51L303.01,528.70L301.29,508.89L320.59,490.07L332.72,473.81L322.83,453.76L310.87,429.82L321.38,412.55L347.92,405.65L364.48,395.84L364.06,372.01L366.08,345.92L385.33,337.84L412.07,344.81L430.24,341.88L440.93,319.03L455.89,298.49L477.16,303.19L497.24,322.10L514.77,325.60L535.59,309.26L558.41,300.23L574.07,316.94L582.75,342.78L597.94,351.96L624.98,346.85L648.13,351.60L652.14,375.37L647.97,401.71L659.36,415.75L686.41,424.17L702.33,440.43L692.38,463.73L677.20,484.66L683.25,502.50L703.38,523.22L707.02,544.92L685.30,560.10L663.31,571.69L662.43,591.64L670.06,619.78L660.61,639.07L633.12,640.86L609.43,641.84L600.42,661.20L593.19,689.45L574.39,699.34L549.04,686.48L528.21,678.03L511.05,693.18L490.83,713.83L469.71,710.63L453.86,686.28L438.93,671.10L415.50,678.18L388.07,685.53L372.57,670.14L370.75,640.75L363.08,622.03L337.36,618.08L310.78,610.36L307.04,588.03L319.74,561.34L319.32,541.92L296.87,526.14L278.96,506.19L289.13,484.79L312.88,467.49L319.06,449.53L305.65,424.17L301.49,398.66L322.96,386.02L351.59,381.93L363.49,367.09L363.37,337.39L373.57,314.71L399.75,315.97L426.37,325.26L443.05,315.09L457.33,288.19L477.77,275.69L500.25,291.52L519.18,311.10L539.31,307.28L565.15,290.29L588.33,291.78L599.62,318.16L607.71,342.96L629.10,347.09L660.13,344.85L677.68,359.34L673.63,388.80L670.60,413.42L689.99,426.40L717.95,439.77L723.49,461.72L704.57,485.73L692.44,505.85L705.76,526.98L722.97,552.29L714.33,573.50L685.43,585.13L667.42,598.18L670.78,624.62L672.56,654.54L652.56,666.93L621.38,662.88L600.83,668.05L591.82,694.82L578.12,720.53L553.69,718.98L528.33,700.41L508.01,698.05L486.94,718.96L462.51,732.95L442.36,717.05L428.97,688.96L410.95,679.95L381.47,689.25L354.41,687.77L346.09,662.08L347.29,631.60L333.23,616.87L301.86,611.16L281.02,595.50L288.35,568.09L302.89,542.27L294.47,522.96L269.05,502.60L261.10,478.75L282.86,458.53L306.46,442.51L305.46,420.32L292.89,389.87L300.04,366.48L330.34,360.33L357.27,356.32L365.18,333.98L369.17,301.21L388.41,286.74L418.55,297.29L443.35,304.53L460.58,285.90L480.23,259.67L504.31,259.42L525.55,284.29L544.29,299.99L569.29,289.43L599.04,276.98L618.94,291.26L625.19,323.87L635.87,344.43L664.73,345.64L695.88,350.19L703.90,374.18L693.42,405.87L695.77,427.90L722.57,442.48L745.94,462.10L738.37,487.38L714.09,510.09L708.76,530.93L726.90,557.24L735.79,585.29L714.25,602.73L682.58,611.21L670.58,628.90L674.69,661.79L667.04,689.03L638.04,691.85L606.78,684.89L589.17,697.70L577.01,729.52L556.22,747.10L529.00,733.18L505.07,713.49L483.22,719.62L456.87,742.13L430.66,744.55L414.19,717.19L401.93,690.11L378.00,687.73L343.78,694.67L321.62,681.67L321.69,648.53L322.18,620.23L299.54,608.09L266.41,597.26L256.31,573.93L273.72,544.59L285.21,520.37L268.22,498.74L245.23,473.03L250.97,448.10L281.33,431.05L300.38,414.32L293.56,385.75L287.00,352.57L306.78,335.45L342.00,335.54L364.74,327.63L371.32,297.17L382.63,266.26L409.63,263.77L440.46,280.93L463.56,281.67L484.03,256.03L509.13,236.44L533.80,250.46L552.59,279.99L573.56,288.45L604.75,274.36L635.27,271.56L648.53,298.26L651.26,332.54L668.17,347.62L703.49,349.70L729.42,363.67L725.74,394.78L712.80,425.64L723.84,446.13L754.69,465.10L767.69,490.31L746.99,515.78L722.49,536.78L725.74,560.97L743.90,592.87L740.10,620.10L707.83,631.40L677.98,639.22L671.65,664.39L671.93,701.25L653.25,720.68L618.61,713.54L589.78,708.28L573.06,730.44L555.11,762.40L528.68,766.99L501.70,742.70L478.82,727.06L452.82,741.42L421.65,759.70L397.36,747.60L385.82,712.53L371.64,690.47L340.07,692.60L304.74,692.32L291.85,667.57L299.00,631.07L294.22,606.56L263.19,593.99L234.10,575.83L238.06,547.08L261.85,518.57L265.88,494.81L242.71,468.41L228.30,438.62L248.81,416.15L282.86,402.46L294.58,381.79L285.76,346.35L289.75,314.79L320.79,307.10L356.52,310.73L374.73,295.06L383.78,258.56L403.86,235.51L435.61,246.40L464.86,265.31L488.15,256.58L513.97,228.24L542.55,220.99L564.64,248.27L581.73,277.03L607.96,277.26L644.63,264.82L671.35,275.22L676.20,311.37L679.04,343.14L704.85,353.93L742.91,361.10L758.14,384.89L743.40,419.49L733.27,447.97L754.05,469.50L783.19,494.49L781.36,522.71L750.55,545.73L731.00,566.56L741.70,596.68L753.92,632.36L735.43,654.42L696.76,659.28L672.10,670.43L668.65,704.23L660.90,740.17L632.09,747.48L595.79,732.86L569.97,734.22L550.97,764.60L526.28,790.23L497.29,779.20L472.55,749.17L448.56,741.69L416.47,761.02L383.15,769.07L364.52,742.38L356.93,704.83L337.00,689.75L298.27,692.15L267.28,681.03L266.36,646.84L276.70,610.94L262.79,589.58L226.58,573.06L207.93,547.46L226.41,516.74L250.98,490.31L245.17,464.38L220.91,432.03L220.34,401.42L253.61,384.34L285.89,371.98L290.20,344.16L284.70,303.85L301.70,279.27L340.36,281.93L373.13,284.42L388.80,258.76L403.88,221.12L431.85,211.43L464.70,233.96L491.98,248.87L518.37,230.49L549.91,205.81L578.38,214.66L595.92,251.27L614.06,274.38L647.83,268.38L686.73,263.37L704.92,287.84L702.19,328.75L709.92,355.54L744.92,365.33L779.75,380.82L780.34,412.44L758.17,446.93L755.91,473.61L784.27,499.22L804.86,529.74L786.50,557.26L750.93,576.87L739.88,600.64L754.00,637.86L754.76,673.26L722.63,686.47L682.79,687.18L664.30,705.88L659.34,746.65L641.11,775.37L605.28,768.58L570.56,751.46L546.12,763.04L521.91,797.33L491.80,810.19L463.88,784.16L441.38,754.45L413.09,756.72L374.91,775.35L343.88,768.65L333.30,730.36L326.32,695.47L297.51,686.52L254.99,684.09L234.22,660.91L245.14,621.35L253.11,588.55L228.50,567.70L193.05,544.63L190.05,513.77L220.16,484.42L239.62,459.15L224.72,428.06L206.07,390.84L222.14,363.85L263.47,353.15L289.69,338.26L289.39,301.58L292.44,261.04L322.11,248.27L363.66,259.20L392.09,255.21L408.78,220.24L431.87,188.30L464.74,195.29L495.81,224.74L522.88,230.79L554.97,205.92L590.23,191.78L614.48,217.32L627.77,257.42L650.85,272.13L692.30,264.51L728.10,271.62L734.46,308.06L727.77,348.80L744.73,370.71L786.06,383.74L810.77,408.61L795.69,444.35L771.99,476.54L780.64,503.92L811.31,535.63L817.20,568.93L784.06,592.24L749.98,609.83L748.08,640.06L759.65,683.01L745.48,712.70L703.53,715.50L667.02,716.62L652.94,745.67L641.91,788.71L613.38,804.12L574.74,784.55L542.88,771.13L516.71,793.65L485.96,825.09L453.79,820.57L429.68,783.50L407.16,759.86L371.78,770.15L330.12,781.40L306.40,758.32L303.69,713.65L292.49,684.83L253.89,678.56L213.52,666.96L207.56,633.29L226.92,592.82L226.92,563.27L193.38,539.36L166.12,509.24L181.18,476.90L217.27,450.79L227.23,423.83L207.34,385.70L200.83,347.15L232.96,327.96L276.34,321.96L294.75,300.05L294.76,255.58L309.91,221.23L349.17,222.91L389.36,237.20L414.63,222.55L436.11,182.37L466.73,163.28L500.47,186.84L528.86,216.62L558.93,211.54L597.58,186.21L632.41,188.12L649.40,227.50L661.27,265.03L692.88,271.70L739.20,268.38L765.71,289.80L759.73,333.78L754.75,370.82L783.14,390.41L824.83,410.34L833.47,442.99L805.30,478.81L786.63,508.80L805.93,540.21L831.60,577.88L819.11,609.55L776.08,626.85L748.74,645.97L753.33,684.97L756.08,729.48L726.64,748.15L680.27,742.06L649.42,749.20L635.86,788.49L615.64,826.77L579.53,824.81L541.91,797.12L511.76,792.97L480.61,823.53L444.46,844.46L414.58,821.27L394.84,779.50L368.48,765.55L325.12,779.03L285.02,777.08L272.54,739.39L274.53,694.17L254.33,672.05L208.33,663.51L177.34,640.60L187.90,600.30L209.68,562.17L197.95,533.65L160.74,503.71L148.69,468.63L180.49,438.87L215.61,415.43L214.74,383.06L196.38,338.43L206.54,303.92L250.88,294.80L290.76,289.24L302.76,256.97L308.62,209.01L336.59,187.47L380.70,202.84L417.20,213.96L442.52,187.28L471.23,148.90L506.42,148.12L537.48,184.45L564.76,207.99L601.10,193.09L644.53,174.81L673.75,195.29L682.85,242.91L698.04,273.39L739.74,275.50L785.23,282.01L797.23,316.71L781.87,362.94L784.67,395.25L823.23,416.58L857.44,445.03L846.80,481.74L811.31,514.77L802.90,544.98L828.87,583.07L842.04,623.85L811.11,649.29L764.91,661.47L746.95,686.72L752.68,734.17L741.85,773.87L700.03,778.19L654.56,767.83L628.78,785.76L611.13,831.55L581.18,857.32L541.86,837.45L507.23,808.58L475.69,816.76L437.70,849.11L399.80,853.01L375.94,813.71L358.44,774.20L324.29,770.21L299.66,775.18L275.03,780.16L242.83,761.75L242.82,714.09L243.95,673.01L211.91,655.23L188.08,647.45L164.25,639.67L149.31,606.27L174.28,564.07L191.38,529.17L167.56,498.08L134.47,461.19L142.27,425.33L164.06,413.09L185.86,400.84L213.78,377.04L204.47,336.33L194.94,288.71L222.94,263.90L248.21,263.98L273.48,264.06L306.49,253.24L316.16,210.04L332.23,165.62L370.70,161.68L392.78,174.02L414.87,186.36L448.05,188.09L477.32,151.87L513.16,123.62L548.44,143.25L561.84,164.45L575.24,185.65L604.97,198.40L649.32,178.61L692.99,174.32L712.09,212.11L715.81,261.23L739.41,283.21L764.45,284.77L789.48,286.32L826.71,305.99L821.74,350.15L802.98,394.23L818.02,423.57L839.85,437.06L861.68,450.55L880.57,486.34L851.41,522.57L816.15,552.36L820.09,586.57L832.93,609.17L845.77,631.78L840.78,670.59L795.15,686.74L752.39,697.55L742.93,732.80L743.12,758.89L743.31,784.98L717.13,812.88L692.62,807.89L668.11,802.90L627.02,794.93L603.12,825.66L590.44,848.29L577.76,870.92L540.46,877.95L521.37,860.82L502.28,843.70L469.95,820.87L433.32,840.49L411.31,853.49L389.29,866.48L354.76,849.96L346.60,825.20L338.44,800.44L318.83,768.60L274.71,771.08L224.71,770.91L206.02,736.46L211.08,710.69L216.14,684.91L210.21,649.90L167.10,631.95L125.75,606.55L130.62,566.20L147.46,546.11L164.30,526.02L171.02,492.54L138.99,455.49L118.18,413.54L146.32,381.74L170.41,372.16L194.50,362.59L211.98,334.06L205.99,309.33L199.99,284.60L205.02,239.87L248.09,228.55L273.33,231.27L298.58,233.99L324.81,213.02L331.22,187.61L337.63,162.21L365.43,129.12L409.76,143.71L450.91,170.84L483.65,159.89L501.69,140.17L519.74,120.45L559.83,109.33L590.91,146.90L614.61,187.95L650.76,189.48L676.34,180.80L701.92,172.13L739.89,185.75L743.47,210.81L747.05,235.88L750.31,281.00L785.28,296.86L811.87,301.81L838.46,306.77L860.81,339.41L850.72,363.50L840.64,387.59L825.36,427.67L853.04,457.88L873.49,475.25L893.95,492.62L892.70,531.98L871.37,548.07L850.03,564.15L821.44,592.88L835.16,634.37L843.91,659.27L852.66,684.18L828.11,715.58L801.23,719.01L774.34,722.44L738.88,736.93L733.33,783.01L728.19,808.25L723.04,833.49L683.72,844.88L658.45,834.68L633.18,824.49L596.73,824.78L570.17,865.92L536.09,902.41L495.90,888.52L478.71,867.51L461.53,846.51L428.54,834.32L406.45,847.29L384.36,860.27L337.83,872.53L311.36,836.77L306.24,810.49L301.11,784.21L274.70,761.80L248.17,763.23L221.64,764.66L177.74,750.20L175.36,703.61L182.87,678.54L190.37,653.47L173.00,623.14L148.22,611.69L123.45,600.23L96.14,565.24L120.46,522.85L137.99,504.56L155.52,486.26L149.56,450.66L132.92,428.41L116.29,406.15L113.81,363.44L136.29,351.42L158.77,339.40L204.55,322.94L212.19,285.76L208.36,258.01L204.53,230.26L226.60,195.04L253.00,196.52L279.39,197.99L325.49,202.75L347.96,169.24L358.23,143.21L368.50,117.17L406.43,101.89L429.01,117.07L451.60,132.25L489.35,154.65L525.54,131.32L547.21,114.05L568.87,96.77L608.46,106.85L620.62,131.84L632.78,156.83L656.87,190.56L702.27,183.87L729.20,180.02L756.13,176.17L782.55,208.15L780.75,236.22L778.94,264.29L787.69,302.52L834.24,316.72L858.65,327.03L883.07,337.33L885.93,379.96L870.64,403.67L855.35,427.39L849.74,464.36L868.44,481.88L887.14,499.40L902.02,520.29L916.89,541.18L893.85,579.21L869.23,592.62L844.60,606.02L826.93,637.64L836.09,662.79L845.24,687.93L847.90,737.24L805.55,756.58L777.95,756.79L750.35,757.00L723.23,780.45L719.63,807.91L716.03,835.36L692.27,876.39L644.04,868.88L620.08,856.60L596.13,844.32L562.16,857.31L545.68,880.43L529.20,903.54L488.24,923.45L469.09,906.54L449.95,889.63L434.70,868.56L419.45,847.48L381.73,847.81L355.81,860.44L329.90,873.07L286.48,866.27L278.83,840.78L271.18,815.29L262.87,766.15L225.69,751.98L196.73,750.44L167.77,748.91L137.21,718.93L144.10,692.25L150.99,665.57L163.98,619.99L133.17,590.92L108.80,575.37L84.43,559.81L77.46,518.16L97.51,498.15L117.55,478.15L146.65,444.04L128.95,402.46L115.79,377.10L102.62,351.75L121.69,313.94L149.57,306.51L177.45,299.08L215.51,280.53L216.84,232.42L218.36,204.47L219.88,176.52L258.27,156.83L286.47,164.17L314.67,171.52L354.69,169.00L366.31,146.33L377.92,123.65L393.25,101.15L408.58,78.65L452.65,85.19L473.77,105.31L494.89,125.44L531.42,137.09L552.93,121.14L574.44,105.19L598.49,94.53L622.54,83.86L656.34,115.72L665.21,143.25L674.08,170.78L703.44,193.77L730.96,189.15L758.47,184.52L783.49,188.32L808.50,192.12L819.15,239.59L814.15,267.55L809.14,295.52L828.83,326.98L856.22,335.91L883.61,344.83L919.72,377.32L910.76,401.20L901.80,425.08L884.93,446.98L868.07,468.88L875.97,505.89L896.37,527.15L916.77,548.42L927.93,593.75L906.64,609.80L885.34,625.85L861.30,637.36L837.25,648.86L831.38,687.84L839.20,716.67L847.01,745.49L830.72,787.56L803.10,790.13L775.47,792.70L749.98,792.45L724.49,792.21L703.55,828.25L696.32,857.34L689.09,886.43L652.21,910.52L626.38,898.07L600.55,885.62L556.98,864.51L521.56,891.30L501.01,912.91L480.45,934.51L436.90,932.24L420.53,907.81L404.16,883.37L374.87,848.22L328.76,859.09L300.53,867.34L272.31,875.59L238.31,847.83L236.27,817.99L234.24,788.15L221.95,746.73L197.27,741.67L172.60,736.61L144.74,729.46L116.88,722.31L105.44,678.94L118.42,651.73L131.40,624.51L135.41,583.74L114.23,567.59L93.05,551.45L73.54,531.47L54.04,511.48L70.43,468.04L94.91,450.52L119.39,432.99L137.04,397.88L124.71,372.81L112.37,347.74L106.62,321.42L100.86,295.09L140.74,267.54L170.29,263.82L199.84,260.09L227.89,233.86L228.37,204.82L228.85,175.77L237.87,151.49L246.89,127.22L272.28,126.87L297.68,126.53L324.99,136.85L352.29,147.17L387.60,132.02L401.95,105.76L416.31,79.50L456.48,50.23L478.99,64.43L501.50,78.64L520.46,99.71L539.41,120.78L578.73,118.62L604.32,101.95L629.92,85.27L677.70,83.85L689.67,108.94L701.63,134.04L708.83,160.34L716.03,186.65L755.26,199.15L786.05,196.82L816.85,194.48L855.47,220.00L852.42,248.73L849.38,277.45L844.57,303.03L839.76,328.62L873.41,356.38L901.47,369.41L929.53,382.43L945.57,424.82L927.66,448.63L909.74,472.44L880.89,512.52L902.37,553.78L920.14,578.82L937.92,603.86L925.92,647.26L897.78,659.04L869.65,670.82L829.31,694.23L832.27,743.74L834.96,773.84L837.66,803.94L801.99,832.13L771.26,828.32L740.54,824.50L696.83,829.94L687.12,854.43L677.40,878.92L664.61,905.50L651.81,932.09L605.24,934.06L580.17,915.60L555.10,897.14L514.63,886.45L494.12,905.21L473.61,923.98L449.59,939.49L425.56,955.01L384.94,928.77L371.91,900.61L358.88,872.46L326.15,848.98L298.15,856.92L270.14,864.85L242.58,865.20L215.01,865.54L205.29,842.22L195.57,818.89L197.42,788.32L199.27,757.75L177.01,725.06L147.42,719.06L117.82,713.06L95.41,698.96L73.00,684.86L78.07,658.87L83.15,632.87L98.68,607.26L114.21,581.65L104.32,543.12L80.30,523.46L56.28,503.79L45.90,480.60L35.53,457.40L54.76,437.41L73.99,417.42L98.71,402.22L123.43,387.02L127.58,346.27L115.57,317.03L103.56,287.79L112.44,239.67L140.52,232.66L168.60,225.65L196.36,223.19L224.12,220.73L243.52,182.38L247.15,150.69L250.77,119.00L284.80,85.90L313.45,94.87L342.10,103.83L366.94,113.23L391.78,122.62L426.19,92.64L444.87,66.80L463.55,40.97L509.67,34.25L530.30,57.28L550.93,80.32L568.53,98.29L586.12,116.26L632.45,101.35L661.24,88.36L690.02,75.37L731.08,97.15L737.46,128.09L743.83,159.03L760.47,203.50L786.23,206.43L812.00,209.35L842.84,212.64L873.69,215.93L894.25,258.30L884.34,288.72L874.44,319.14L872.66,363.98L896.05,378.45L919.45,392.91L943.58,411.12L967.71,429.33L959.39,477.03L935.82,498.84L912.25,520.65L894.93,559.71L910.37,584.24L925.81,608.76L936.47,636.00L947.13,663.25L929.33,681.04L911.53,698.83L880.56,706.61L849.60,714.38L820.63,743.79L823.48,773.93L826.33,804.07L820.99,831.73L815.65,859.39L789.78,864.26L763.91,869.13L733.40,861.47L702.90,853.82L666.12,871.32L654.37,900.38L642.63,929.44L623.84,948.89L605.05,968.34L579.62,957.63L554.19,946.92L531.29,926.50L508.39,906.08L467.39,910.06L442.77,930.74L418.15,951.42L392.77,956.85L367.38,962.29L351.03,938.49L334.67,914.68L323.93,887.03L313.18,859.38L271.99,848.49L239.98,855.03L207.97,861.58L184.87,851.94L161.78,842.30L160.43,812.23L159.08,782.17L161.63,753.85L164.17,725.53L127.91,699.13L96.52,689.29L65.14,679.45L39.46,638.12L54.41,610.77L69.37,583.43L83.19,560.17L97.01,536.92L72.02,496.30L49.59,472.36L27.16,448.42L30.64,400.61L58.20,384.26L85.75,367.91L106.82,353.38L127.89,338.85L124.30,313.67L120.70,288.49L113.31,256.92L105.92,225.34L137.01,188.82L169.68,188.48L202.34,188.14L249.77,178.97L257.42,152.99L265.07,127.01L274.54,96.66L284.00,66.31L331.43,54.94L360.31,70.94L389.20,86.93L433.97,96.10L453.11,74.74L472.25,53.38L495.38,32.84L518.52,12.31L541.80,21.80L565.08,31.29L582.58,59.34L600.08,87.40L636.67,111.14L664.65,99.90L692.64,88.65L722.10,83.54L751.55,78.43L765.76,100.41L779.96,122.40L781.90,155.15L783.84,187.89L809.03,221.88L840.36,224.65L871.68,227.41L898.23,238.47L924.77,249.53L924.16,276.93L923.56,304.32L910.09,333.62L896.63,362.92L908.64,403.13L936.02,420.62L963.40,438.12L978.87,460.96L994.35,483.80L978.05,507.45L961.76,531.10L936.95,550.34L912.15,569.59L909.68,612.18L925.98,641.17L942.27,670.16L942.28,696.66L942.29,723.16L914.63,734.86L886.97,746.56L857.23,752.29L827.49,758.02L809.57,798.57L810.02,832.28L810.46,865.99L795.83,886.98L781.19,907.96L750.31,903.16L719.43,898.36L691.48,890.71L663.53,883.06L630.26,915.97L614.19,945.78L598.12,975.60L551.11,992.23L526.33,971.48L501.55,950.73L480.69,932.78L459.82,914.84L413.66,933.56L385.11,951.48L356.56,969.40L309.34,955.30L298.24,924.05L287.15,892.81L276.22,869.20L265.29,845.59L238.75,844.83L212.20,844.07L178.96,845.25L145.72,846.43L115.85,806.98L121.95,773.79L128.05,740.61L126.82,691.53L101.52,678.97L76.21,666.41L47.63,650.84L19.06,635.27L18.58,610.03L18.10,584.79L39.92,558.67L61.73,532.56L78.27,489.10L59.89,465.54L41.51,441.99L27.11,415.01L12.70,388.03"/>
</svg>
