<?xml version="1.0" encoding="utf-8"?>
<!-- Generator: dithermaster 0.1 --><svg version="1.1" id="Layer_1" xmlns="http://www.w3.org/2000/svg" xmlns:xlink="http://www.w3.org/1999/xlink" x="0px" y="0px"
viewBox="0 0 1000 1000" style="enable-background:new 0 0 1000 1000;" xml:space="preserve">
<style type="text/css">
.st0{fill:none;stroke:#C82100;stroke-miterlimit:10;}
</style>
<path class="st0" d="M501.00,500.00L501.00,500.00L500.03,499.75L500.10,499.49L500.26,499.17L500.46,498.90L500.65,498.81L500.85,498.76L501.19,498.58L501.69,498.36L502.09,498.34L502.26,498.55L502.45,498.75L502.99,498.84L503.70,498.97L504.06,499.30L503.97,499.72L504.00,500.12L504.56,500.59L505.21,501.22L505.25,501.79L504.77,502.18L504.55,502.66L504.87,503.55L505.12,504.58L504.69,505.12L503.88,505.20L503.37,505.61L503.20,506.77L502.81,507.90L501.99,508.07L501.09,507.64L500.33,507.84L499.48,508.96L498.44,509.77L497.54,509.32L496.87,508.36L495.94,508.23L494.44,508.90L493.03,509.02L492.48,507.94L492.34,506.62L491.37,506.06L489.51,505.90L488.20,505.16L488.39,503.75L488.93,502.39L488.13,501.34L486.39,500.17L485.72,498.75L486.81,497.50L487.98,496.44L487.61,494.94L486.58,492.88L486.88,491.26L488.71,490.73L490.29,490.25L490.62,488.48L490.76,486.00L492.03,484.81L494.10,485.37L495.81,485.60L497.02,483.90L498.47,481.69L500.31,481.50L501.97,483.20L503.50,484.11L505.59,482.96L508.08,481.75L509.79,482.78L510.43,485.29L511.54,486.75L514.23,486.63L517.08,486.90L517.92,488.92L517.21,491.60L517.74,493.44L520.47,494.69L522.80,496.46L522.25,498.80L520.23,500.93L520.08,502.95L522.12,505.55L523.14,508.34L521.16,510.12L518.26,511.09L517.35,513.08L517.98,516.62L517.29,519.53L514.38,519.94L511.27,519.46L509.57,521.15L508.35,524.81L506.14,526.84L503.20,525.48L500.59,523.62L498.14,524.68L495.14,527.45L492.14,527.84L490.20,524.87L488.65,522.05L485.68,522.09L481.51,523.09L478.81,521.63L478.69,517.79L478.47,514.59L475.40,513.30L471.14,512.05L469.80,509.20L471.78,505.59L472.87,502.60L470.35,499.87L467.23,496.57L467.88,493.34L471.61,491.08L473.75,488.76L472.54,484.84L471.53,480.34L474.11,478.00L478.68,477.85L481.51,476.49L482.22,472.04L483.72,467.66L487.43,467.23L491.65,469.39L494.81,469.10L497.68,465.15L501.27,462.24L504.82,464.16L507.58,468.16L510.74,469.00L515.44,466.66L519.99,466.16L522.01,470.05L522.60,474.93L525.43,476.91L531.00,477.06L535.02,479.14L534.55,483.86L532.84,488.49L534.96,491.55L540.02,494.48L542.13,498.43L538.98,502.45L535.42,505.82L536.35,509.78L539.48,514.99L538.91,519.42L533.78,521.31L529.20,522.80L528.46,527.21L528.64,533.46L525.55,536.72L519.85,535.66L515.17,535.11L512.48,539.24L509.46,544.84L504.95,545.65L500.33,541.66L496.37,539.36L491.79,542.23L486.30,545.56L482.03,543.46L479.92,537.46L477.19,533.91L471.34,534.58L464.93,534.61L462.59,530.18L463.70,523.72L462.46,519.48L456.48,517.32L451.05,514.01L451.75,508.72L455.91,503.48L456.22,499.07L451.56,494.10L448.79,488.48L452.62,484.23L458.81,481.54L460.65,477.40L458.72,470.45L459.45,464.35L465.41,462.83L472.13,463.30L475.43,459.88L477.08,452.50L481.02,447.94L487.27,450.03L492.99,453.45L497.58,451.26L502.76,445.36L508.51,443.90L512.97,449.31L516.53,454.78L522.04,454.43L529.64,451.71L535.12,453.85L536.18,461.20L537.04,467.49L542.74,469.47L550.82,470.88L553.99,475.87L551.02,483.08L549.28,488.96L554.09,493.46L560.42,498.77L560.01,504.79L553.58,509.73L549.80,514.30L552.48,520.94L555.22,528.72L551.18,533.51L542.91,534.67L537.84,537.41L537.33,545.13L535.65,553.12L529.27,554.73L521.31,551.68L515.70,552.41L511.52,559.55L505.97,565.36L499.44,562.86L493.84,556.33L488.32,555.10L480.92,559.80L473.28,561.66L469.01,555.54L467.12,547.16L462.23,544.04L453.05,544.80L445.83,542.20L445.61,534.25L447.75,526.01L444.05,521.18L435.27,517.35L430.88,511.29L435.22,504.01L440.72,497.74L438.87,491.50L432.85,483.70L432.75,476.35L440.70,472.22L448.16,469.06L448.83,462.05L447.36,452.12L451.55,446.15L460.94,446.74L468.76,447.01L472.42,440.29L476.11,430.86L483.06,428.51L491.19,433.98L497.95,437.27L504.57,432.26L512.51,425.96L519.65,428.24L524.12,437.32L528.89,442.75L537.66,440.89L547.62,439.56L552.23,445.85L551.66,456.18L554.01,462.77L563.34,465.11L572.38,469.10L572.49,477.30L566.95,486.19L566.84,493.06L574.58,499.74L579.98,507.74L575.13,514.96L566.03,520.17L563.56,526.61L567.57,536.61L567.75,546.01L559.20,549.51L548.80,549.89L544.17,555.26L542.98,566.43L538.05,574.12L528.40,572.30L519.13,567.98L512.60,571.59L506.04,581.14L497.82,584.59L490.20,577.51L483.99,569.74L476.08,570.81L465.49,576.11L456.95,574.20L454.00,563.66L451.82,554.30L443.49,552.13L431.50,551.54L425.76,545.01L428.74,533.99L430.59,524.95L423.25,519.19L413.12,512.69L412.35,503.95L420.77,495.64L425.86,488.42L421.21,479.47L415.81,468.80L420.48,461.10L432.19,457.96L439.36,453.42L438.98,442.59L439.84,430.83L448.48,427.19L460.42,430.20L468.48,428.62L473.23,418.08L479.99,408.73L489.62,410.84L498.72,419.25L506.70,420.55L516.22,412.90L526.66,408.73L533.82,416.34L537.87,427.99L544.99,431.96L557.53,429.46L568.21,431.62L570.09,442.55L568.33,454.58L573.85,460.93L586.54,464.77L593.95,472.31L589.38,483.12L582.53,492.83L585.64,501.14L595.19,510.84L596.91,520.99L586.79,528.12L576.70,533.64L576.54,543.15L580.24,556.48L575.78,565.58L562.86,566.47L551.83,567.13L547.71,576.53L544.33,590.04L535.39,594.74L523.36,588.71L513.49,584.94L505.32,592.44L495.64,602.41L485.53,600.87L477.91,589.30L470.66,582.28L459.29,585.92L446.03,589.52L438.56,582.09L437.60,567.99L433.68,559.14L421.03,557.37L408.08,553.65L406.27,542.79L412.31,529.87L411.82,520.49L400.64,512.82L391.85,503.06L396.83,492.59L408.30,484.10L411.04,475.22L404.26,462.68L402.19,450.11L412.77,443.88L426.74,441.75L432.39,434.22L432.22,419.38L437.27,408.13L450.25,408.74L463.38,413.17L471.58,407.82L475.12,401.04L478.66,394.26L488.87,388.03L500.09,395.91L509.57,405.47L519.70,403.26L526.20,398.93L532.70,394.60L544.34,395.38L550.04,408.60L554.24,420.87L565.21,422.72L573.08,422.12L580.96,421.51L589.81,428.86L588.81,436.29L587.81,443.73L586.50,456.07L596.60,462.54L603.75,465.93L610.90,469.32L613.69,480.49L608.91,486.60L604.14,492.71L598.23,502.95L605.30,513.77L609.73,520.26L614.17,526.74L609.71,537.58L602.35,540.58L595.00,543.58L586.02,550.41L587.96,564.14L588.43,571.85L588.90,579.57L578.58,585.93L570.58,584.93L562.59,583.93L552.15,586.85L547.60,600.91L544.05,607.57L540.51,614.24L527.84,613.40L521.28,608.66L514.72,603.92L504.20,603.01L498.72,608.55L493.23,614.10L480.51,621.38L470.01,613.08L466.49,605.83L462.98,598.59L453.43,594.17L445.67,596.69L437.91,599.20L423.74,598.41L419.39,584.94L419.64,577.01L419.88,569.08L412.24,561.54L403.92,560.08L395.59,558.62L384.64,550.35L388.51,535.91L392.24,529.13L395.97,522.34L391.20,512.19L384.41,506.80L377.61,501.42L373.44,488.78L379.20,483.42L384.96,478.06L397.25,469.51L396.42,457.62L393.03,449.49L389.63,441.36L393.49,428.93L401.55,427.28L409.60,425.63L423.78,423.32L427.80,411.15L428.85,402.35L429.89,393.55L440.23,385.85L448.29,388.65L456.35,391.46L469.56,395.08L478.75,384.78L484.03,377.70L489.31,370.61L502.28,370.54L508.00,377.20L513.72,383.86L523.87,392.03L537.45,386.07L545.50,382.68L553.55,379.30L564.29,387.09L566.01,395.87L567.72,404.65L573.71,415.55L581.63,415.79L589.56,416.03L598.03,417.26L606.50,418.50L610.81,431.57L608.01,440.17L605.21,448.76L606.79,460.63L614.21,464.58L621.63,468.53L628.01,473.89L634.40,479.25L630.20,493.06L623.64,499.27L617.07,505.48L614.49,516.93L619.56,524.16L624.64,531.40L627.06,539.10L629.48,546.79L623.55,551.57L617.62,556.35L608.99,558.72L600.37,561.09L594.04,571.01L595.24,580.14L596.44,589.26L594.31,596.76L592.19,604.26L584.18,605.02L576.16,605.78L567.59,603.95L559.01,602.11L549.43,609.49L546.08,618.38L542.74,627.26L536.97,632.10L531.20,636.94L523.66,633.07L516.11,629.21L509.48,623.86L502.85,618.51L490.70,622.24L483.36,628.57L476.02,634.89L461.44,636.17L456.85,628.55L452.26,620.93L448.79,613.50L445.32,606.07L431.80,605.01L422.21,606.99L412.61,608.97L400.27,601.63L400.28,592.37L400.30,583.10L400.33,575.26L400.35,567.42L387.39,560.77L378.05,557.74L368.71,554.71L363.12,541.57L368.00,533.33L372.87,525.09L379.04,511.51L374.11,505.42L369.17,499.33L362.67,492.07L356.16,484.82L359.50,470.77L368.03,465.94L376.57,461.12L387.04,451.55L384.98,443.41L382.93,435.26L381.07,425.86L379.21,416.45L390.49,406.80L400.44,406.79L410.39,406.79L423.09,402.05L424.89,393.28L426.68,384.52L429.91,375.73L433.13,366.94L440.84,366.27L448.54,365.60L457.30,370.43L466.06,375.25L479.16,375.34L484.99,367.91L490.82,360.47L498.00,354.90L505.17,349.32L512.22,353.37L519.27,357.41L524.65,365.78L530.04,374.15L542.15,378.66L551.13,374.53L560.12,370.39L568.86,369.62L577.61,368.84L581.39,376.54L585.18,384.23L586.02,394.00L586.87,403.77L596.84,412.20L607.08,412.74L617.32,413.29L624.76,417.34L632.20,421.39L631.11,430.36L630.03,439.34L626.39,448.20L622.76,457.06L629.48,468.80L638.47,474.27L647.45,479.75L651.17,487.05L654.88,494.34L648.88,501.71L642.87,509.08L635.90,515.18L628.92,521.27L631.14,535.38L636.46,544.66L641.79,553.94L640.63,561.83L639.48,569.71L630.10,572.99L620.72,576.27L612.15,578.62L603.59,580.98L601.87,588.42L600.15,595.86L600.25,606.63L600.36,617.40L594.88,623.02L589.40,628.64L579.29,626.56L569.19,624.49L560.84,623.08L552.50,621.68L547.66,628.31L542.82,634.94L537.57,644.31L532.33,653.68L524.58,654.97L516.83,656.25L508.94,649.16L501.04,642.07L494.33,637.64L487.62,633.22L479.96,637.58L472.31,641.94L463.15,647.32L453.99,652.70L446.87,649.08L439.75,645.47L436.35,635.19L432.94,624.91L428.68,618.57L424.42,612.22L415.04,612.96L405.65,613.70L395.24,613.61L384.82,613.51L381.06,606.18L377.31,598.84L379.37,588.10L381.44,577.36L378.32,563.06L369.03,559.39L359.73,555.72L351.14,550.34L342.55,544.96L343.78,536.43L345.01,527.91L351.99,519.47L358.96,511.04L360.99,496.96L354.00,489.11L347.01,481.26L342.77,472.42L338.52,463.58L344.67,456.91L350.81,450.25L360.85,446.15L370.89,442.06L377.54,429.58L374.84,418.97L372.13,408.36L373.36,398.97L374.58,389.59L383.87,387.33L393.16,385.07L403.75,386.07L414.34,387.08L425.02,377.41L427.69,366.43L430.36,355.45L436.39,348.60L442.42,341.75L451.93,345.04L461.44,348.33L470.17,353.88L478.90,359.43L485.87,356.63L492.84,353.83L500.59,345.26L508.34,336.70L516.92,334.58L525.50,332.47L532.12,340.68L538.75,348.90L543.92,357.41L549.10,365.93L557.06,365.84L565.02,365.75L576.09,361.96L587.16,358.17L595.17,361.37L603.18,364.56L604.64,375.46L606.09,386.36L607.05,395.83L608.01,405.31L615.94,408.46L623.86,411.62L635.39,413.77L646.92,415.93L651.46,423.15L656.00,430.38L651.55,440.83L647.09,451.29L644.18,459.87L641.27,468.44L647.72,474.94L654.18,481.44L663.03,489.02L671.88,496.60L671.24,505.16L670.61,513.72L661.29,520.70L651.96,527.69L646.19,534.05L640.42,540.41L643.81,549.62L647.21,558.83L650.92,569.69L654.63,580.54L648.94,587.22L643.25,593.90L631.51,595.39L619.77,596.89L612.39,600.41L605.01,603.93L604.05,614.34L603.09,624.75L600.71,635.71L598.32,646.66L589.49,648.83L580.66,651.00L569.60,646.59L558.54,642.17L550.71,642.76L542.87,643.36L537.08,652.77L531.29,662.19L523.72,670.01L516.15,677.82L507.27,674.37L498.39,670.93L490.81,661.80L483.23,652.67L475.84,650.56L468.45,648.46L458.57,654.50L448.68,660.54L438.46,662.96L428.24,665.38L422.54,657.13L416.84,648.87L414.47,637.41L412.09,625.95L405.84,621.46L399.59,616.97L387.59,617.77L375.60,618.57L366.09,615.10L356.58,611.63L356.34,601.07L356.10,590.50L359.19,579.49L362.29,568.47L357.82,561.95L353.35,555.44L342.09,550.35L330.83,545.26L325.13,537.33L319.44,529.40L325.19,519.90L330.94,510.40L338.42,502.22L345.89,494.05L343.91,486.00L341.92,477.95L334.35,467.91L326.77,457.87L326.67,448.40L326.57,438.93L336.91,433.64L347.26,428.36L357.15,424.46L367.04,420.56L368.23,411.81L369.41,403.06L367.68,390.50L365.94,377.95L371.29,370.36L376.64,362.77L388.67,363.61L400.71,364.45L410.82,365.09L420.93,365.74L425.73,357.58L430.54,349.43L435.24,337.68L439.94,325.92L448.69,322.98L457.44,320.04L467.69,327.07L477.93,334.10L486.44,338.58L494.94,343.07L503.20,337.16L511.45,331.25L521.32,323.53L531.19,315.82L540.08,318.67L548.96,321.52L554.46,332.96L559.95,344.39L565.71,351.46L571.46,358.54L582.13,356.53L592.79,354.51L604.99,352.96L617.18,351.40L622.83,359.15L628.49,366.90L627.66,379.71L626.83,392.51L629.40,400.81L631.98,409.11L643.11,412.12L654.23,415.13L665.16,420.02L676.09,424.92L676.20,434.89L676.30,444.87L669.38,455.71L662.46,466.55L661.94,474.93L661.42,483.30L670.49,491.38L679.55,499.45L686.00,509.08L692.45,518.71L686.57,527.38L680.70,536.05L669.55,542.26L658.40,548.47L655.10,556.05L651.80,563.63L656.35,575.45L660.91,587.27L661.09,598.44L661.28,609.61L651.06,613.75L640.83,617.89L628.30,618.17L615.76,618.46L610.04,624.54L604.31,630.62L602.78,643.62L601.25,656.63L595.43,665.67L589.60,674.72L578.21,672.51L566.82,670.31L555.83,664.98L544.85,659.66L537.13,663.53L529.40,667.40L521.71,678.38L514.01,689.35L504.43,693.35L494.84,697.36L485.97,689.03L477.09,680.70L469.90,671.38L462.72,662.06L453.65,662.97L444.58,663.88L432.38,669.86L420.18,675.84L410.33,673.62L400.47,671.40L397.11,659.16L393.75,646.92L391.43,635.90L389.11,624.88L379.77,622.16L370.43,619.43L356.81,618.66L343.19,617.90L336.63,610.43L330.06,602.95L333.57,590.30L337.07,577.64L339.47,567.21L341.87,556.77L333.81,550.14L325.75,543.51L314.38,536.11L303.01,528.70L302.15,518.80L301.29,508.89L310.94,499.48L320.59,490.07L326.66,481.94L332.72,473.81L327.77,463.79L322.83,453.76L316.85,441.79L310.87,429.82L316.12,421.19L321.38,412.55L334.65,409.10L347.92,405.65L356.20,400.75L364.48,395.84L364.27,383.93L364.06,372.01L365.07,358.97L366.08,345.92L375.71,341.88L385.33,337.84L398.70,341.33L412.07,344.81L421.15,343.35L430.24,341.88L435.58,330.46L440.93,319.03L448.41,308.76L455.89,298.49L466.52,300.84L477.16,303.19L487.20,312.65L497.24,322.10L506.00,323.85L514.77,325.60L525.18,317.43L535.59,309.26L547.00,304.75L558.41,300.23L566.24,308.59L574.07,316.94L578.41,329.86L582.75,342.78L590.34,347.37L597.94,351.96L611.46,349.41L624.98,346.85L636.55,349.23L648.13,351.60L650.14,363.48L652.14,375.37L650.06,388.54L647.97,401.71L653.67,408.73L659.36,415.75L672.89,419.96L686.41,424.17L694.37,432.30L702.33,440.43L697.35,452.08L692.38,463.73L684.79,474.20L677.20,484.66L680.23,493.58L683.25,502.50L693.31,512.86L703.38,523.22L705.20,534.07L707.02,544.92L696.16,552.51L685.30,560.10L674.31,565.90L663.31,571.69L662.87,581.66L662.43,591.64L666.24,605.71L670.06,619.78L665.33,629.43L660.61,639.07L646.86,639.96L633.12,640.86L621.28,641.35L609.43,641.84L604.93,651.52L600.42,661.20L596.81,675.32L593.19,689.45L583.79,694.39L574.39,699.34L561.71,692.91L549.04,686.48L538.63,682.26L528.21,678.03L519.63,685.60L511.05,693.18L500.94,703.51L490.83,713.83L480.27,712.23L469.71,710.63L461.78,698.45L453.86,686.28L446.39,678.69L438.93,671.10L427.22,674.64L415.50,678.18L401.79,681.86L388.07,685.53L380.32,677.84L372.57,670.14L371.66,655.44L370.75,640.75L366.92,631.39L363.08,622.03L350.22,620.06L337.36,618.08L324.07,614.22L310.78,610.36L308.91,599.19L307.04,588.03L313.39,574.68L319.74,561.34L319.53,551.63L319.32,541.92L308.10,534.03L296.87,526.14L287.92,516.16L278.96,506.19L284.05,495.49L289.13,484.79L301.01,476.14L312.88,467.49L315.97,458.51L319.06,449.53L312.35,436.85L305.65,424.17L303.57,411.41L301.49,398.66L312.22,392.34L322.96,386.02L337.27,383.98L351.59,381.93L357.54,374.51L363.49,367.09L363.43,352.24L363.37,337.39L368.47,326.05L373.57,314.71L386.66,315.34L399.75,315.97L413.06,320.61L426.37,325.26L434.71,320.18L443.05,315.09L446.62,308.37L450.19,301.64L453.76,294.92L457.33,288.19L467.55,281.94L477.77,275.69L489.01,283.60L500.25,291.52L509.72,301.31L519.18,311.10L529.24,309.19L539.31,307.28L545.77,303.03L552.23,298.78L558.69,294.53L565.15,290.29L576.74,291.03L588.33,291.78L593.97,304.97L599.62,318.16L603.67,330.56L607.71,342.96L618.41,345.02L629.10,347.09L636.86,346.53L644.62,345.97L652.37,345.41L660.13,344.85L668.91,352.10L677.68,359.34L675.66,374.07L673.63,388.80L672.12,401.11L670.60,413.42L680.29,419.91L689.99,426.40L696.98,429.74L703.97,433.08L710.96,436.43L717.95,439.77L720.72,450.75L723.49,461.72L718.76,467.73L714.03,473.73L709.30,479.73L704.57,485.73L698.51,495.79L692.44,505.85L699.10,516.41L705.76,526.98L710.06,533.31L714.36,539.64L718.67,545.97L722.97,552.29L718.65,562.90L714.33,573.50L707.10,576.41L699.88,579.31L692.66,582.22L685.43,585.13L676.43,591.65L667.42,598.18L669.10,611.40L670.78,624.62L671.67,639.58L672.56,654.54L662.56,660.73L652.56,666.93L644.76,665.92L636.97,664.91L629.18,663.89L621.38,662.88L611.11,665.46L600.83,668.05L596.33,681.43L591.82,694.82L584.97,707.67L578.12,720.53L565.90,719.75L553.69,718.98L547.35,714.33L541.01,709.69L534.67,705.05L528.33,700.41L518.17,699.23L508.01,698.05L497.48,708.51L486.94,718.96L474.73,725.96L462.51,732.95L452.44,725.00L442.36,717.05L439.01,710.03L435.67,703.01L432.32,695.99L428.97,688.96L419.96,684.45L410.95,679.95L403.58,682.27L396.21,684.60L388.84,686.93L381.47,689.25L367.94,688.51L354.41,687.77L350.25,674.92L346.09,662.08L346.39,654.46L346.69,646.84L346.99,639.22L347.29,631.60L340.26,624.23L333.23,616.87L325.38,615.44L317.54,614.02L309.70,612.59L301.86,611.16L291.44,603.33L281.02,595.50L284.69,581.80L288.35,568.09L295.62,555.18L302.89,542.27L298.68,532.62L294.47,522.96L288.12,517.87L281.76,512.78L275.41,507.69L269.05,502.60L265.08,490.67L261.10,478.75L271.98,468.64L282.86,458.53L294.66,450.52L306.46,442.51L305.96,431.42L305.46,420.32L302.32,412.71L299.17,405.09L296.03,397.48L292.89,389.87L296.47,378.18L300.04,366.48L307.62,364.95L315.19,363.41L322.76,361.87L330.34,360.33L343.80,358.32L357.27,356.32L361.22,345.15L365.18,333.98L366.17,325.79L367.17,317.60L368.17,309.40L369.17,301.21L378.79,293.98L388.41,286.74L395.95,289.38L403.48,292.02L411.01,294.65L418.55,297.29L430.95,300.91L443.35,304.53L451.97,295.22L460.58,285.90L465.49,279.34L470.40,272.79L475.32,266.23L480.23,259.67L492.27,259.55L504.31,259.42L509.62,265.64L514.93,271.85L520.24,278.07L525.55,284.29L534.92,292.14L544.29,299.99L556.79,294.71L569.29,289.43L576.73,286.32L584.16,283.21L591.60,280.09L599.04,276.98L608.99,284.12L618.94,291.26L620.50,299.41L622.06,307.56L623.62,315.72L625.19,323.87L630.53,334.15L635.87,344.43L650.30,345.03L664.73,345.64L672.52,346.78L680.31,347.92L688.10,349.06L695.88,350.19L699.89,362.18L703.90,374.18L701.28,382.10L698.66,390.02L696.04,397.95L693.42,405.87L694.59,416.89L695.77,427.90L702.47,431.54L709.17,435.19L715.87,438.84L722.57,442.48L728.41,447.39L734.25,452.29L740.10,457.19L745.94,462.10L742.16,474.74L738.37,487.38L732.30,493.06L726.23,498.73L720.16,504.41L714.09,510.09L711.43,520.51L708.76,530.93L713.30,537.51L717.83,544.08L722.37,550.66L726.90,557.24L731.34,571.26L735.79,585.29L725.02,594.01L714.25,602.73L706.34,604.85L698.42,606.97L690.50,609.09L682.58,611.21L676.58,620.05L670.58,628.90L671.61,637.12L672.63,645.34L673.66,653.56L674.69,661.79L670.86,675.41L667.04,689.03L652.54,690.44L638.04,691.85L630.23,690.11L622.41,688.37L614.59,686.63L606.78,684.89L597.97,691.30L589.17,697.70L586.13,705.66L583.09,713.61L580.05,721.56L577.01,729.52L566.61,738.31L556.22,747.10L549.42,743.62L542.61,740.14L535.80,736.66L529.00,733.18L523.01,728.26L517.03,723.33L511.05,718.41L505.07,713.49L494.14,716.55L483.22,719.62L476.63,725.24L470.04,730.87L463.46,736.50L456.87,742.13L443.77,743.34L430.66,744.55L426.54,737.71L422.43,730.87L418.31,724.03L414.19,717.19L408.06,703.65L401.93,690.11L389.96,688.92L378.00,687.73L369.45,689.47L360.89,691.20L352.33,692.93L343.78,694.67L332.70,688.17L321.62,681.67L321.64,673.38L321.66,665.10L321.67,656.81L321.69,648.53L321.94,634.38L322.18,620.23L310.86,614.16L299.54,608.09L291.26,605.38L282.97,602.68L274.69,599.97L266.41,597.26L261.36,585.59L256.31,573.93L260.66,566.59L265.01,559.26L269.36,551.92L273.72,544.59L279.47,532.48L285.21,520.37L276.72,509.55L268.22,498.74L262.48,492.31L256.73,485.88L250.98,479.46L245.23,473.03L248.10,460.57L250.97,448.10L258.56,443.84L266.15,439.58L273.74,435.31L281.33,431.05L290.85,422.68L300.38,414.32L296.97,400.03L293.56,385.75L291.92,377.46L290.28,369.16L288.64,360.87L287.00,352.57L296.89,344.01L306.78,335.45L315.59,335.47L324.39,335.49L333.20,335.51L342.00,335.54L353.37,331.58L364.74,327.63L366.38,320.02L368.03,312.40L369.67,304.79L371.32,297.17L374.15,289.44L376.97,281.71L379.80,273.98L382.63,266.26L396.13,265.01L409.63,263.77L417.34,268.06L425.05,272.35L432.75,276.64L440.46,280.93L452.01,281.30L463.56,281.67L468.68,275.26L473.80,268.85L478.91,262.44L484.03,256.03L490.31,251.13L496.58,246.24L502.86,241.34L509.13,236.44L521.47,243.45L533.80,250.46L538.50,257.84L543.20,265.22L547.89,272.61L552.59,279.99L563.07,284.22L573.56,288.45L581.36,284.93L589.15,281.40L596.95,277.88L604.75,274.36L612.38,273.66L620.01,272.96L627.64,272.26L635.27,271.56L641.90,284.91L648.53,298.26L649.21,306.83L649.89,315.40L650.58,323.97L651.26,332.54L659.72,340.08L668.17,347.62L677.00,348.14L685.83,348.66L694.66,349.18L703.49,349.70L716.46,356.68L729.42,363.67L728.50,371.44L727.58,379.22L726.66,387.00L725.74,394.78L722.50,402.49L719.27,410.21L716.03,417.92L712.80,425.64L718.32,435.88L723.84,446.13L731.56,450.87L739.27,455.61L746.98,460.36L754.69,465.10L761.19,477.70L767.69,490.31L762.52,496.68L757.34,503.05L752.17,509.41L746.99,515.78L740.87,521.03L734.74,526.28L728.61,531.53L722.49,536.78L724.11,548.87L725.74,560.97L730.28,568.95L734.82,576.92L739.36,584.89L743.90,592.87L742.00,606.48L740.10,620.10L732.03,622.92L723.96,625.75L715.90,628.58L707.83,631.40L700.37,633.36L692.90,635.31L685.44,637.27L677.98,639.22L674.82,651.81L671.65,664.39L671.72,673.61L671.79,682.82L671.86,692.03L671.93,701.25L662.59,710.96L653.25,720.68L644.59,718.90L635.93,717.11L627.27,715.33L618.61,713.54L604.19,710.91L589.78,708.28L581.42,719.36L573.06,730.44L568.57,738.43L564.08,746.42L559.59,754.41L555.11,762.40L541.89,764.70L528.68,766.99L521.93,760.92L515.19,754.85L508.44,748.77L501.70,742.70L490.26,734.88L478.82,727.06L465.82,734.24L452.82,741.42L445.03,745.99L437.24,750.56L429.45,755.13L421.65,759.70L409.51,753.65L397.36,747.60L394.47,738.83L391.59,730.06L388.71,721.29L385.82,712.53L378.73,701.50L371.64,690.47L363.75,691.01L355.86,691.54L347.96,692.07L340.07,692.60L331.24,692.53L322.41,692.46L313.57,692.39L304.74,692.32L298.30,679.95L291.85,667.57L293.64,658.45L295.42,649.32L297.21,640.19L299.00,631.07L296.61,618.81L294.22,606.56L286.46,603.42L278.71,600.27L270.95,597.13L263.19,593.99L255.92,589.45L248.65,584.91L241.37,580.37L234.10,575.83L236.08,561.45L238.06,547.08L244.01,539.95L249.95,532.82L255.90,525.70L261.85,518.57L263.86,506.69L265.88,494.81L260.09,488.21L254.29,481.61L248.50,475.01L242.71,468.41L239.10,460.96L235.50,453.52L231.90,446.07L228.30,438.62L233.43,433.01L238.55,427.39L243.68,421.77L248.81,416.15L257.32,412.73L265.83,409.31L274.35,405.89L282.86,402.46L288.72,392.13L294.58,381.79L292.38,372.93L290.17,364.07L287.97,355.21L285.76,346.35L286.76,338.46L287.76,330.57L288.75,322.68L289.75,314.79L297.51,312.87L305.27,310.95L313.03,309.02L320.79,307.10L329.72,308.01L338.65,308.91L347.59,309.82L356.52,310.73L365.63,302.89L374.73,295.06L377.00,285.94L379.26,276.81L381.52,267.69L383.78,258.56L388.80,252.80L393.82,247.04L398.84,241.27L403.86,235.51L411.80,238.23L419.74,240.96L427.67,243.68L435.61,246.40L442.92,251.13L450.23,255.85L457.54,260.58L464.86,265.31L476.50,260.94L488.15,256.58L494.60,249.49L501.06,242.41L507.51,235.32L513.97,228.24L528.26,224.61L542.55,220.99L548.08,227.81L553.60,234.63L559.12,241.45L564.64,248.27L568.91,255.46L573.19,262.65L577.46,269.84L581.73,277.03L594.85,277.15L607.96,277.26L617.13,274.15L626.30,271.04L635.46,267.93L644.63,264.82L657.99,270.02L671.35,275.22L672.56,284.26L673.78,293.30L674.99,302.33L676.20,311.37L676.91,319.31L677.62,327.26L678.33,335.20L679.04,343.14L691.94,348.53L704.85,353.93L714.36,355.72L723.88,357.51L733.39,359.30L742.91,361.10L750.52,372.99L758.14,384.89L754.46,393.54L750.77,402.19L747.08,410.84L743.40,419.49L740.87,426.61L738.33,433.73L735.80,440.85L733.27,447.97L743.66,458.74L754.05,469.50L761.34,475.75L768.62,482.00L775.91,488.24L783.19,494.49L782.28,508.60L781.36,522.71L773.66,528.46L765.96,534.22L758.25,539.97L750.55,545.73L740.77,556.14L731.00,566.56L733.67,574.09L736.35,581.62L739.02,589.15L741.70,596.68L744.75,605.60L747.81,614.52L750.86,623.44L753.92,632.36L744.68,643.39L735.43,654.42L725.76,655.64L716.10,656.85L706.43,658.07L696.76,659.28L684.43,664.86L672.10,670.43L671.24,678.88L670.38,687.33L669.52,695.78L668.65,704.23L666.71,713.21L664.78,722.20L662.84,731.18L660.90,740.17L646.50,743.82L632.09,747.48L623.02,743.82L613.94,740.17L604.87,736.51L595.79,732.86L582.88,733.54L569.97,734.22L565.22,741.82L560.47,749.41L555.72,757.01L550.97,764.60L544.79,771.01L538.62,777.42L532.45,783.83L526.28,790.23L519.03,787.48L511.78,784.72L504.53,781.96L497.29,779.20L491.10,771.69L484.92,764.19L478.74,756.68L472.55,749.17L460.56,745.43L448.56,741.69L440.54,746.52L432.51,751.36L424.49,756.19L416.47,761.02L408.14,763.03L399.81,765.05L391.48,767.06L383.15,769.07L378.49,762.40L373.83,755.72L369.18,749.05L364.52,742.38L362.62,732.99L360.72,723.60L358.83,714.22L356.93,704.83L346.97,697.29L337.00,689.75L327.32,690.35L317.64,690.95L307.96,691.55L298.27,692.15L290.53,689.37L282.78,686.59L275.03,683.81L267.28,681.03L267.05,672.48L266.82,663.93L266.59,655.39L266.36,646.84L268.94,637.86L271.53,628.89L274.11,619.92L276.70,610.94L269.74,600.26L262.79,589.58L253.74,585.45L244.69,581.32L235.64,577.19L226.58,573.06L221.92,566.66L217.26,560.26L212.60,553.86L207.93,547.46L212.55,539.78L217.17,532.10L221.79,524.42L226.41,516.74L232.55,510.13L238.69,503.52L244.84,496.92L250.98,490.31L248.08,477.34L245.17,464.38L239.11,456.29L233.04,448.20L226.98,440.12L220.91,432.03L220.77,424.38L220.63,416.73L220.48,409.08L220.34,401.42L228.66,397.15L236.98,392.88L245.29,388.61L253.61,384.34L261.68,381.25L269.75,378.16L277.82,375.07L285.89,371.98L288.04,358.07L290.20,344.16L288.83,334.08L287.45,324.01L286.07,313.93L284.70,303.85L293.20,291.56L301.70,279.27L311.37,279.94L321.03,280.60L330.70,281.27L340.36,281.93L348.56,282.55L356.75,283.18L364.94,283.80L373.13,284.42L377.05,278.00L380.97,271.59L384.88,265.17L388.80,258.76L392.57,249.35L396.34,239.94L400.11,230.53L403.88,221.12L417.86,216.27L431.85,211.43L440.06,217.06L448.27,222.70L456.49,228.33L464.70,233.96L471.52,237.69L478.34,241.42L485.16,245.15L491.98,248.87L498.58,244.28L505.18,239.68L511.78,235.09L518.37,230.49L526.26,224.32L534.14,218.15L542.03,211.98L549.91,205.81L564.15,210.23L578.38,214.66L582.76,223.81L587.15,232.96L591.54,242.11L595.92,251.27L604.99,262.82L614.06,274.38L622.50,272.88L630.94,271.38L639.39,269.88L647.83,268.38L657.55,267.13L667.28,265.87L677.00,264.62L686.73,263.37L691.28,269.49L695.83,275.61L700.38,281.73L704.92,287.84L704.24,298.07L703.56,308.30L702.88,318.52L702.19,328.75L706.05,342.15L709.92,355.54L718.67,357.99L727.42,360.43L736.17,362.88L744.92,365.33L753.63,369.20L762.34,373.07L771.05,376.94L779.75,380.82L779.90,388.72L780.05,396.63L780.20,404.53L780.34,412.44L774.80,421.06L769.26,429.68L763.71,438.31L758.17,446.93L757.04,460.27L755.91,473.61L763.00,480.02L770.09,486.42L777.18,492.82L784.27,499.22L789.41,506.85L794.56,514.48L799.71,522.11L804.86,529.74L800.27,536.62L795.68,543.50L791.09,550.38L786.50,557.26L777.61,562.16L768.71,567.06L759.82,571.96L750.93,576.87L745.40,588.75L739.88,600.64L743.41,609.94L746.94,619.25L750.47,628.55L754.00,637.86L754.19,646.71L754.38,655.56L754.57,664.41L754.76,673.26L746.73,676.56L738.69,679.87L730.66,683.17L722.63,686.47L712.67,686.65L702.71,686.82L692.75,687.00L682.79,687.18L673.55,696.53L664.30,705.88L663.06,716.07L661.82,726.27L660.58,736.46L659.34,746.65L654.78,753.83L650.23,761.01L645.67,768.19L641.11,775.37L632.16,773.67L623.20,771.98L614.24,770.28L605.28,768.58L596.60,764.30L587.92,760.02L579.24,755.74L570.56,751.46L558.34,757.25L546.12,763.04L540.07,771.61L534.02,780.19L527.96,788.76L521.91,797.33L514.38,800.55L506.86,803.76L499.33,806.97L491.80,810.19L484.82,803.68L477.84,797.17L470.86,790.66L463.88,784.16L458.26,776.73L452.63,769.30L447.01,761.88L441.38,754.45L427.24,755.58L413.09,756.72L403.55,761.38L394.00,766.03L384.45,770.69L374.91,775.35L367.15,773.67L359.40,772.00L351.64,770.32L343.88,768.65L341.24,759.08L338.59,749.51L335.94,739.94L333.30,730.36L331.55,721.64L329.81,712.92L328.07,704.19L326.32,695.47L319.12,693.23L311.92,691.00L304.72,688.76L297.51,686.52L286.88,685.91L276.25,685.31L265.62,684.70L254.99,684.09L249.80,678.29L244.60,672.50L239.41,666.70L234.22,660.91L236.95,651.02L239.68,641.13L242.41,631.24L245.14,621.35L247.13,613.15L249.12,604.95L251.11,596.75L253.11,588.55L246.95,583.34L240.80,578.13L234.65,572.92L228.50,567.70L219.64,561.94L210.77,556.17L201.91,550.40L193.05,544.63L192.30,536.91L191.55,529.20L190.80,521.48L190.05,513.77L197.58,506.43L205.10,499.09L212.63,491.76L220.16,484.42L225.02,478.10L229.89,471.79L234.75,465.47L239.62,459.15L235.89,451.38L232.17,443.61L228.45,435.84L224.72,428.06L220.06,418.76L215.40,409.45L210.74,400.14L206.07,390.84L210.09,384.09L214.10,377.34L218.12,370.60L222.14,363.85L232.47,361.18L242.81,358.50L253.14,355.83L263.47,353.15L270.03,349.43L276.58,345.71L283.14,341.98L289.69,338.26L289.62,329.09L289.54,319.92L289.47,310.75L289.39,301.58L290.15,291.45L290.91,281.31L291.68,271.18L292.44,261.04L299.86,257.85L307.27,254.66L314.69,251.46L322.11,248.27L332.49,251.00L342.88,253.73L353.27,256.46L363.66,259.20L377.87,257.20L392.09,255.21L396.26,246.47L400.43,237.72L404.60,228.98L408.78,220.24L414.55,212.25L420.32,204.27L426.09,196.28L431.87,188.30L440.08,190.05L448.30,191.79L456.52,193.54L464.74,195.29L472.51,202.65L480.28,210.01L488.05,217.37L495.81,224.74L509.35,227.76L522.88,230.79L530.90,224.57L538.93,218.35L546.95,212.14L554.97,205.92L563.79,202.38L572.60,198.85L581.42,195.31L590.23,191.78L596.29,198.16L602.35,204.55L608.42,210.94L614.48,217.32L617.80,227.35L621.12,237.37L624.44,247.40L627.77,257.42L639.31,264.78L650.85,272.13L661.22,270.23L671.58,268.32L681.94,266.41L692.30,264.51L701.25,266.28L710.20,268.06L719.15,269.84L728.10,271.62L729.69,280.73L731.28,289.84L732.87,298.95L734.46,308.06L732.79,318.24L731.12,328.43L729.45,338.62L727.77,348.80L736.25,359.76L744.73,370.71L755.06,373.97L765.40,377.23L775.73,380.48L786.06,383.74L792.24,389.96L798.42,396.17L804.59,402.39L810.77,408.61L807.00,417.54L803.23,426.48L799.46,435.41L795.69,444.35L789.76,452.40L783.84,460.45L777.92,468.50L771.99,476.54L776.32,490.23L780.64,503.92L788.31,511.85L795.98,519.78L803.64,527.71L811.31,535.63L812.78,543.96L814.26,552.28L815.73,560.60L817.20,568.93L808.92,574.75L800.63,580.58L792.35,586.41L784.06,592.24L775.54,596.63L767.02,601.03L758.50,605.43L749.98,609.83L749.50,617.39L749.03,624.94L748.55,632.50L748.08,640.06L750.97,650.80L753.87,661.54L756.76,672.27L759.65,683.01L756.11,690.43L752.57,697.85L749.03,705.28L745.48,712.70L734.99,713.40L724.50,714.10L714.01,714.80L703.53,715.50L694.40,715.78L685.27,716.06L676.15,716.34L667.02,716.62L663.50,723.88L659.98,731.14L656.46,738.41L652.94,745.67L650.18,756.43L647.43,767.19L644.67,777.95L641.91,788.71L634.78,792.56L627.64,796.42L620.51,800.27L613.38,804.12L603.72,799.22L594.06,794.33L584.40,789.44L574.74,784.55L566.77,781.20L558.81,777.84L550.84,774.49L542.88,771.13L536.34,776.76L529.79,782.39L523.25,788.02L516.71,793.65L509.02,801.51L501.34,809.37L493.65,817.23L485.96,825.09L477.92,823.96L469.88,822.83L461.84,821.70L453.79,820.57L447.76,811.30L441.74,802.04L435.71,792.77L429.68,783.50L424.05,777.59L418.42,771.68L412.79,765.77L407.16,759.86L398.31,762.43L389.47,765.01L380.62,767.58L371.78,770.15L361.36,772.96L350.95,775.77L340.53,778.59L330.12,781.40L324.19,775.63L318.26,769.86L312.33,764.09L306.40,758.32L305.73,747.15L305.05,735.98L304.37,724.82L303.69,713.65L300.89,706.44L298.09,699.24L295.29,692.03L292.49,684.83L282.84,683.26L273.19,681.69L263.54,680.13L253.89,678.56L243.80,675.66L233.71,672.76L223.61,669.86L213.52,666.96L212.03,658.54L210.54,650.13L209.05,641.71L207.56,633.29L212.40,623.18L217.24,613.06L222.08,602.94L226.92,592.82L226.92,578.05L226.92,563.27L218.54,557.29L210.15,551.31L201.77,545.34L193.38,539.36L186.57,531.83L179.75,524.30L172.94,516.77L166.12,509.24L169.88,501.16L173.65,493.07L177.42,484.98L181.18,476.90L190.20,470.37L199.23,463.84L208.25,457.32L217.27,450.79L222.25,437.31L227.23,423.83L222.26,414.30L217.29,404.76L212.31,395.23L207.34,385.70L205.71,376.07L204.08,366.43L202.45,356.79L200.83,347.15L208.86,342.36L216.89,337.56L224.92,332.76L232.96,327.96L243.80,326.46L254.65,324.96L265.49,323.46L276.34,321.96L285.55,311.01L294.75,300.05L294.76,288.93L294.76,277.82L294.76,266.70L294.76,255.58L298.55,246.99L302.33,238.41L306.12,229.82L309.91,221.23L319.72,221.65L329.54,222.07L339.36,222.49L349.17,222.91L359.22,226.48L369.27,230.05L379.31,233.62L389.36,237.20L402.00,229.87L414.63,222.55L420.00,212.50L425.37,202.46L430.74,192.41L436.11,182.37L443.77,177.60L451.42,172.82L459.08,168.05L466.73,163.28L475.17,169.17L483.60,175.06L492.04,180.95L500.47,186.84L507.57,194.29L514.67,201.73L521.77,209.18L528.86,216.62L536.38,215.35L543.90,214.08L551.41,212.81L558.93,211.54L568.59,205.21L578.26,198.88L587.92,192.55L597.58,186.21L606.29,186.69L615.00,187.17L623.71,187.64L632.41,188.12L636.66,197.97L640.91,207.81L645.15,217.66L649.40,227.50L652.37,236.88L655.34,246.26L658.30,255.64L661.27,265.03L669.18,266.69L677.08,268.36L684.98,270.03L692.88,271.70L704.46,270.87L716.04,270.04L727.62,269.21L739.20,268.38L745.82,273.74L752.45,279.09L759.08,284.44L765.71,289.80L764.21,300.79L762.72,311.79L761.22,322.78L759.73,333.78L758.48,343.04L757.24,352.30L755.99,361.56L754.75,370.82L761.85,375.72L768.94,380.61L776.04,385.51L783.14,390.41L793.56,395.39L803.99,400.38L814.41,405.36L824.83,410.34L826.99,418.51L829.15,426.67L831.31,434.83L833.47,442.99L826.43,451.95L819.39,460.90L812.34,469.85L805.30,478.81L800.63,486.30L795.96,493.80L791.30,501.30L786.63,508.80L791.46,516.65L796.28,524.51L801.11,532.36L805.93,540.21L812.35,549.63L818.77,559.05L825.19,568.47L831.60,577.88L828.48,585.80L825.36,593.72L822.23,601.63L819.11,609.55L808.35,613.87L797.60,618.20L786.84,622.52L776.08,626.85L769.25,631.63L762.41,636.41L755.58,641.19L748.74,645.97L749.89,655.72L751.04,665.47L752.18,675.22L753.33,684.97L754.02,696.10L754.70,707.23L755.39,718.35L756.08,729.48L748.72,734.15L741.36,738.82L734.00,743.48L726.64,748.15L715.05,746.63L703.46,745.11L691.86,743.59L680.27,742.06L672.56,743.85L664.85,745.63L657.13,747.41L649.42,749.20L646.03,759.02L642.64,768.84L639.25,778.67L635.86,788.49L630.80,798.06L625.75,807.63L620.69,817.20L615.64,826.77L606.61,826.28L597.58,825.79L588.56,825.30L579.53,824.81L570.12,817.89L560.72,810.97L551.31,804.04L541.91,797.12L534.37,796.09L526.84,795.05L519.30,794.01L511.76,792.97L503.97,800.61L496.19,808.25L488.40,815.89L480.61,823.53L471.57,828.77L462.53,834.00L453.49,839.23L444.46,844.46L436.99,838.67L429.52,832.87L422.05,827.07L414.58,821.27L409.65,810.83L404.71,800.38L399.77,789.94L394.84,779.50L381.66,772.53L368.48,765.55L357.64,768.92L346.80,772.29L335.96,775.66L325.12,779.03L315.09,778.54L305.07,778.05L295.05,777.56L285.02,777.08L281.90,767.65L278.78,758.23L275.66,748.81L272.54,739.39L273.04,728.08L273.53,716.78L274.03,705.47L274.53,694.17L264.43,683.11L254.33,672.05L242.83,669.91L231.33,667.78L219.83,665.64L208.33,663.51L200.58,657.78L192.83,652.05L185.09,646.33L177.34,640.60L179.98,630.52L182.62,620.45L185.26,610.37L187.90,600.30L193.34,590.77L198.79,581.23L204.23,571.70L209.68,562.17L206.75,555.04L203.81,547.91L200.88,540.78L197.95,533.65L188.65,526.17L179.34,518.68L170.04,511.20L160.74,503.71L157.73,494.94L154.72,486.17L151.70,477.40L148.69,468.63L156.64,461.19L164.59,453.75L172.54,446.31L180.49,438.87L189.27,433.01L198.05,427.15L206.83,421.29L215.61,415.43L215.39,407.34L215.17,399.25L214.96,391.15L214.74,383.06L210.15,371.90L205.56,360.74L200.97,349.59L196.38,338.43L198.92,329.80L201.46,321.17L204.00,312.55L206.54,303.92L217.63,301.64L228.71,299.36L239.80,297.08L250.88,294.80L260.85,293.41L270.82,292.02L280.79,290.63L290.76,289.24L293.76,281.17L296.76,273.10L299.76,265.04L302.76,256.97L304.23,244.98L305.69,232.99L307.16,221.00L308.62,209.01L315.61,203.62L322.60,198.24L329.60,192.85L336.59,187.47L347.62,191.31L358.65,195.15L369.67,199.00L380.70,202.84L389.83,205.62L398.95,208.40L408.08,211.18L417.20,213.96L423.53,207.29L429.86,200.62L436.19,193.95L442.52,187.28L449.70,177.68L456.87,168.09L464.05,158.49L471.23,148.90L480.02,148.70L488.82,148.51L497.62,148.31L506.42,148.12L514.18,157.20L521.95,166.28L529.72,175.37L537.48,184.45L544.30,190.33L551.12,196.22L557.94,202.11L564.76,207.99L573.84,204.27L582.93,200.54L592.01,196.82L601.10,193.09L611.96,188.52L622.81,183.95L633.67,179.38L644.53,174.81L651.83,179.93L659.14,185.05L666.44,190.17L673.75,195.29L676.02,207.19L678.30,219.10L680.57,231.00L682.85,242.91L686.65,250.53L690.45,258.15L694.24,265.77L698.04,273.39L708.46,273.92L718.89,274.45L729.31,274.97L739.74,275.50L751.11,277.13L762.48,278.75L773.85,280.38L785.23,282.01L788.23,290.68L791.23,299.36L794.23,308.03L797.23,316.71L793.39,328.27L789.55,339.83L785.71,351.38L781.87,362.94L782.57,371.02L783.27,379.10L783.97,387.17L784.67,395.25L794.31,400.58L803.95,405.91L813.59,411.24L823.23,416.58L831.78,423.69L840.33,430.80L848.88,437.92L857.44,445.03L854.78,454.21L852.12,463.39L849.46,472.57L846.80,481.74L837.93,490.00L829.06,498.26L820.19,506.51L811.31,514.77L809.21,522.32L807.11,529.87L805.00,537.42L802.90,544.98L809.39,554.50L815.88,564.02L822.38,573.54L828.87,583.07L832.16,593.26L835.45,603.46L838.75,613.65L842.04,623.85L834.31,630.21L826.57,636.57L818.84,642.93L811.11,649.29L799.56,652.33L788.01,655.38L776.46,658.43L764.91,661.47L760.42,667.79L755.93,674.10L751.44,680.41L746.95,686.72L748.38,698.59L749.82,710.45L751.25,722.31L752.68,734.17L749.97,744.10L747.27,754.02L744.56,763.94L741.85,773.87L731.40,774.95L720.94,776.03L710.49,777.11L700.03,778.19L688.67,775.60L677.30,773.01L665.93,770.42L654.56,767.83L648.12,772.31L641.67,776.80L635.23,781.28L628.78,785.76L624.37,797.20L619.95,808.65L615.54,820.10L611.13,831.55L603.64,837.99L596.15,844.43L588.67,850.88L581.18,857.32L571.35,852.36L561.52,847.39L551.69,842.42L541.86,837.45L533.20,830.24L524.54,823.02L515.88,815.80L507.23,808.58L499.34,810.63L491.46,812.67L483.58,814.71L475.69,816.76L466.20,824.85L456.70,832.93L447.20,841.02L437.70,849.11L428.23,850.09L418.75,851.06L409.27,852.03L399.80,853.01L393.83,843.18L387.87,833.36L381.91,823.53L375.94,813.71L371.57,803.83L367.19,793.95L362.81,784.08L358.44,774.20L349.90,773.20L341.36,772.20L332.83,771.20L324.29,770.21L311.97,772.69L299.66,775.18L287.34,777.67L275.03,780.16L266.98,775.55L258.93,770.95L250.88,766.35L242.83,761.75L242.83,749.83L242.82,737.92L242.82,726.01L242.82,714.09L243.10,703.82L243.38,693.55L243.67,683.28L243.95,673.01L235.94,668.57L227.93,664.12L219.92,659.68L211.91,655.23L199.99,651.34L188.08,647.45L176.17,643.56L164.25,639.67L160.52,631.32L156.78,622.97L153.05,614.62L149.31,606.27L155.55,595.72L161.80,585.17L168.04,574.62L174.28,564.07L178.55,555.35L182.83,546.62L187.10,537.89L191.38,529.17L185.42,521.40L179.47,513.62L173.51,505.85L167.56,498.08L159.29,488.86L151.01,479.64L142.74,470.42L134.47,461.19L136.42,452.23L138.37,443.26L140.32,434.30L142.27,425.33L153.16,419.21L164.06,413.09L174.96,406.96L185.86,400.84L192.84,394.89L199.82,388.94L206.80,382.99L213.78,377.04L211.45,366.86L209.12,356.68L206.79,346.51L204.47,336.33L202.08,324.43L199.70,312.52L197.32,300.61L194.94,288.71L201.94,282.50L208.94,276.30L215.94,270.10L222.94,263.90L235.58,263.94L248.21,263.98L260.85,264.02L273.48,264.06L281.73,261.36L289.98,258.65L298.23,255.94L306.49,253.24L308.91,242.44L311.33,231.64L313.75,220.84L316.16,210.04L320.18,198.93L324.20,187.83L328.21,176.73L332.23,165.62L341.85,164.64L351.46,163.65L361.08,162.66L370.70,161.68L381.74,167.85L392.78,174.02L403.83,180.19L414.87,186.36L423.16,186.79L431.46,187.23L439.75,187.66L448.05,188.09L455.37,179.04L462.68,169.98L470.00,160.92L477.32,151.87L486.28,144.80L495.24,137.74L504.20,130.68L513.16,123.62L521.98,128.53L530.80,133.44L539.62,138.34L548.44,143.25L555.14,153.85L561.84,164.45L568.54,175.05L575.24,185.65L582.68,188.84L590.11,192.03L597.54,195.22L604.97,198.40L616.06,193.45L627.15,188.50L638.24,183.56L649.32,178.61L660.24,177.54L671.16,176.46L682.07,175.39L692.99,174.32L697.77,183.77L702.54,193.21L707.32,202.66L712.09,212.11L713.02,224.39L713.95,236.67L714.88,248.95L715.81,261.23L721.71,266.72L727.61,272.22L733.51,277.71L739.41,283.21L751.93,283.99L764.45,284.77L776.96,285.54L789.48,286.32L798.79,291.24L808.10,296.16L817.40,301.08L826.71,305.99L825.47,317.03L824.23,328.07L822.99,339.11L821.74,350.15L817.05,361.17L812.36,372.19L807.67,383.21L802.98,394.23L806.74,401.57L810.50,408.90L814.26,416.23L818.02,423.57L828.93,430.31L839.85,437.06L850.76,443.81L861.68,450.55L866.40,459.50L871.12,468.45L875.84,477.40L880.57,486.34L873.28,495.40L865.99,504.45L858.70,513.51L851.41,522.57L842.59,530.01L833.78,537.46L824.96,544.91L816.15,552.36L817.13,560.91L818.12,569.46L819.10,578.01L820.09,586.57L826.51,597.87L832.93,609.17L839.35,620.48L845.77,631.78L844.53,641.48L843.28,651.19L842.03,660.89L840.78,670.59L829.37,674.63L817.97,678.67L806.56,682.70L795.15,686.74L784.46,689.44L773.77,692.15L763.08,694.85L752.39,697.55L750.02,706.36L747.66,715.18L745.29,723.99L742.93,732.80L743.02,745.85L743.12,758.89L743.21,771.93L743.31,784.98L736.76,791.95L730.22,798.93L723.68,805.91L717.13,812.88L704.88,810.39L692.62,807.89L680.37,805.40L668.11,802.90L657.84,800.91L647.56,798.92L637.29,796.92L627.02,794.93L621.04,802.61L615.07,810.30L609.09,817.98L603.12,825.66L596.78,836.98L590.44,848.29L584.10,859.61L577.76,870.92L568.44,872.68L559.11,874.44L549.79,876.19L540.46,877.95L530.92,869.39L521.37,860.82L511.83,852.26L502.28,843.70L494.20,837.99L486.12,832.29L478.04,826.58L469.95,820.87L460.80,825.78L451.64,830.68L442.48,835.59L433.32,840.49L422.32,846.99L411.31,853.49L400.30,859.98L389.29,866.48L380.66,862.35L372.02,858.22L363.39,854.09L354.76,849.96L350.68,837.58L346.60,825.20L342.52,812.82L338.44,800.44L333.53,792.48L328.63,784.52L323.73,776.56L318.83,768.60L307.80,769.22L296.77,769.84L285.74,770.46L274.71,771.08L262.21,771.04L249.71,771.00L237.21,770.95L224.71,770.91L220.04,762.30L215.37,753.68L210.69,745.07L206.02,736.46L208.55,723.57L211.08,710.69L213.61,697.80L216.14,684.91L214.66,676.16L213.18,667.40L211.70,658.65L210.21,649.90L199.43,645.41L188.66,640.92L177.88,636.44L167.10,631.95L156.76,625.60L146.42,619.25L136.09,612.90L125.75,606.55L126.97,596.46L128.19,586.38L129.40,576.29L130.62,566.20L139.04,556.16L147.46,546.11L155.88,536.06L164.30,526.02L165.98,517.65L167.66,509.28L169.34,500.91L171.02,492.54L163.01,483.28L155.00,474.02L147.00,464.76L138.99,455.49L133.79,445.01L128.59,434.52L123.38,424.03L118.18,413.54L125.22,405.59L132.25,397.64L139.29,389.69L146.32,381.74L158.36,376.95L170.41,372.16L182.45,367.37L194.50,362.59L198.87,355.45L203.24,348.32L207.61,341.19L211.98,334.06L208.98,321.69L205.99,309.33L202.99,296.96L199.99,284.60L201.25,273.41L202.51,262.23L203.76,251.05L205.02,239.87L215.79,237.04L226.55,234.21L237.32,231.38L248.09,228.55L260.71,229.91L273.33,231.27L285.96,232.63L298.58,233.99L305.14,228.75L311.70,223.50L318.25,218.26L324.81,213.02L328.02,200.32L331.22,187.61L334.43,174.91L337.63,162.21L344.58,153.93L351.53,145.66L358.48,137.39L365.43,129.12L376.51,132.76L387.60,136.41L398.68,140.06L409.76,143.71L420.05,150.50L430.34,157.28L440.62,164.06L450.91,170.84L459.09,168.10L467.28,165.37L475.46,162.63L483.65,159.89L492.67,150.03L501.69,140.17L510.72,130.31L519.74,120.45L529.76,117.67L539.79,114.89L549.81,112.11L559.83,109.33L567.60,118.72L575.37,128.11L583.14,137.50L590.91,146.90L596.83,157.16L602.76,167.42L608.68,177.69L614.61,187.95L623.65,188.33L632.68,188.72L641.72,189.10L650.76,189.48L663.55,185.14L676.34,180.80L689.13,176.47L701.92,172.13L711.41,175.53L720.91,178.94L730.40,182.34L739.89,185.75L741.68,198.28L743.47,210.81L745.26,223.35L747.05,235.88L747.86,247.16L748.68,258.44L749.49,269.72L750.31,281.00L759.05,284.97L767.80,288.93L776.54,292.90L785.28,296.86L798.58,299.34L811.87,301.81L825.16,304.29L838.46,306.77L844.04,314.93L849.63,323.09L855.22,331.25L860.81,339.41L855.76,351.45L850.72,363.50L845.68,375.54L840.64,387.59L836.82,397.61L833.00,407.63L829.18,417.65L825.36,427.67L832.28,435.22L839.20,442.77L846.12,450.33L853.04,457.88L863.27,466.56L873.49,475.25L883.72,483.93L893.95,492.62L893.64,502.46L893.33,512.30L893.01,522.14L892.70,531.98L882.04,540.03L871.37,548.07L860.70,556.11L850.03,564.15L842.88,571.33L835.73,578.52L828.59,585.70L821.44,592.88L824.87,603.25L828.30,613.62L831.73,623.99L835.16,634.37L839.54,646.82L843.91,659.27L848.28,671.72L852.66,684.18L846.52,692.03L840.39,699.88L834.25,707.73L828.11,715.58L814.67,717.29L801.23,719.01L787.78,720.72L774.34,722.44L765.47,726.06L756.61,729.68L747.74,733.31L738.88,736.93L737.49,748.45L736.10,759.97L734.72,771.49L733.33,783.01L730.76,795.63L728.19,808.25L725.61,820.87L723.04,833.49L713.21,836.34L703.38,839.19L693.55,842.03L683.72,844.88L671.08,839.78L658.45,834.68L645.81,829.59L633.18,824.49L624.07,824.56L614.95,824.64L605.84,824.71L596.73,824.78L590.09,835.07L583.45,845.35L576.81,855.63L570.17,865.92L561.65,875.04L553.13,884.17L544.61,893.29L536.09,902.41L526.04,898.94L515.99,895.47L505.95,891.99L495.90,888.52L487.31,878.02L478.71,867.51L470.12,857.01L461.53,846.51L453.28,843.46L445.04,840.41L436.79,837.37L428.54,834.32L417.50,840.81L406.45,847.29L395.41,853.78L384.36,860.27L372.73,863.34L361.10,866.40L349.46,869.46L337.83,872.53L331.21,863.59L324.60,854.65L317.98,845.71L311.36,836.77L308.80,823.63L306.24,810.49L303.67,797.35L301.11,784.21L294.51,778.61L287.90,773.00L281.30,767.40L274.70,761.80L261.44,762.51L248.17,763.23L234.91,763.95L221.64,764.66L210.67,761.05L199.69,757.43L188.71,753.82L177.74,750.20L177.14,738.55L176.55,726.91L175.96,715.26L175.36,703.61L179.11,691.08L182.87,678.54L186.62,666.01L190.37,653.47L186.03,645.89L181.68,638.31L177.34,630.73L173.00,623.14L160.61,617.42L148.22,611.69L135.83,605.96L123.45,600.23L116.62,591.49L109.79,582.74L102.97,573.99L96.14,565.24L102.22,554.64L108.30,544.05L114.38,533.45L120.46,522.85L129.23,513.71L137.99,504.56L146.76,495.41L155.52,486.26L154.03,477.36L152.54,468.46L151.05,459.56L149.56,450.66L141.24,439.53L132.92,428.41L124.61,417.28L116.29,406.15L115.67,395.47L115.05,384.80L114.43,374.12L113.81,363.44L125.05,357.43L136.29,351.42L147.53,345.41L158.77,339.40L170.22,335.29L181.66,331.17L193.11,327.06L204.55,322.94L206.46,313.65L208.37,304.35L210.28,295.06L212.19,285.76L210.28,271.89L208.36,258.01L206.45,244.14L204.53,230.26L210.05,221.46L215.57,212.65L221.08,203.85L226.60,195.04L239.80,195.78L253.00,196.52L266.19,197.25L279.39,197.99L290.92,199.18L302.44,200.37L313.96,201.56L325.49,202.75L331.11,194.38L336.72,186.00L342.34,177.62L347.96,169.24L353.10,156.22L358.23,143.21L363.37,130.19L368.50,117.17L377.98,113.35L387.46,109.53L396.95,105.71L406.43,101.89L417.72,109.48L429.01,117.07L440.31,124.66L451.60,132.25L461.04,137.85L470.47,143.45L479.91,149.05L489.35,154.65L498.39,148.82L507.44,142.99L516.49,137.16L525.54,131.32L536.37,122.69L547.21,114.05L558.04,105.41L568.87,96.77L578.77,99.29L588.66,101.81L598.56,104.33L608.46,106.85L614.54,119.35L620.62,131.84L626.70,144.34L632.78,156.83L638.80,165.26L644.82,173.70L650.85,182.13L656.87,190.56L668.22,188.89L679.57,187.21L690.92,185.54L702.27,183.87L715.74,181.94L729.20,180.02L742.67,178.09L756.13,176.17L762.74,184.16L769.34,192.16L775.95,200.15L782.55,208.15L781.65,222.18L780.75,236.22L779.84,250.26L778.94,264.29L781.13,273.85L783.31,283.41L785.50,292.96L787.69,302.52L799.32,306.07L810.96,309.62L822.60,313.17L834.24,316.72L846.45,321.88L858.65,327.03L870.86,332.18L883.07,337.33L883.79,347.99L884.50,358.65L885.22,369.30L885.93,379.96L878.29,391.82L870.64,403.67L863.00,415.53L855.35,427.39L853.95,436.63L852.55,445.88L851.14,455.12L849.74,464.36L859.09,473.12L868.44,481.88L877.79,490.64L887.14,499.40L894.58,509.85L902.02,520.29L909.46,530.74L916.89,541.18L911.13,550.69L905.37,560.20L899.61,569.70L893.85,579.21L881.54,585.91L869.23,592.62L856.91,599.32L844.60,606.02L840.18,613.93L835.77,621.83L831.35,629.74L826.93,637.64L831.51,650.21L836.09,662.79L840.66,675.36L845.24,687.93L845.90,700.26L846.57,712.58L847.23,724.91L847.90,737.24L837.31,742.08L826.72,746.91L816.14,751.75L805.55,756.58L791.75,756.69L777.95,756.79L764.15,756.90L750.35,757.00L743.57,762.86L736.79,768.73L730.01,774.59L723.23,780.45L721.43,794.18L719.63,807.91L717.83,821.63L716.03,835.36L710.09,845.62L704.15,855.87L698.21,866.13L692.27,876.39L680.21,874.51L668.15,872.63L656.09,870.76L644.04,868.88L632.06,862.74L620.08,856.60L608.11,850.46L596.13,844.32L587.64,847.57L579.15,850.81L570.66,854.06L562.16,857.31L553.92,868.87L545.68,880.43L537.44,891.98L529.20,903.54L518.96,908.52L508.72,913.49L498.48,918.47L488.24,923.45L478.67,914.99L469.09,906.54L459.52,898.09L449.95,889.63L442.32,879.10L434.70,868.56L427.08,858.02L419.45,847.48L410.02,847.57L400.59,847.65L391.16,847.73L381.73,847.81L368.77,854.13L355.81,860.44L342.86,866.76L329.90,873.07L319.05,871.37L308.19,869.67L297.34,867.97L286.48,866.27L282.66,853.53L278.83,840.78L275.01,828.04L271.18,815.29L269.10,803.00L267.03,790.72L264.95,778.43L262.87,766.15L253.58,762.60L244.28,759.06L234.99,755.52L225.69,751.98L211.21,751.21L196.73,750.44L182.25,749.67L167.77,748.91L160.13,741.41L152.49,733.92L144.85,726.43L137.21,718.93L140.66,705.59L144.10,692.25L147.55,678.91L150.99,665.57L154.24,654.18L157.48,642.78L160.73,631.38L163.98,619.99L156.28,612.72L148.58,605.45L140.87,598.19L133.17,590.92L120.99,583.14L108.80,575.37L96.61,567.59L84.43,559.81L82.69,549.40L80.95,538.99L79.21,528.57L77.46,518.16L87.49,508.16L97.51,498.15L107.53,488.15L117.55,478.15L124.82,469.62L132.10,461.10L139.38,452.57L146.65,444.04L142.23,433.64L137.80,423.25L133.38,412.85L128.95,402.46L122.37,389.78L115.79,377.10L109.20,364.43L102.62,351.75L107.39,342.30L112.15,332.84L116.92,323.39L121.69,313.94L135.63,310.22L149.57,306.51L163.51,302.80L177.45,299.08L186.97,294.44L196.48,289.80L206.00,285.17L215.51,280.53L215.84,268.50L216.17,256.47L216.50,244.45L216.84,232.42L217.60,218.45L218.36,204.47L219.12,190.49L219.88,176.52L229.47,171.59L239.07,166.67L248.67,161.75L258.27,156.83L272.37,160.50L286.47,164.17L300.57,167.85L314.67,171.52L324.68,170.89L334.68,170.26L344.69,169.63L354.69,169.00L360.50,157.66L366.31,146.33L372.12,134.99L377.92,123.65L385.59,112.40L393.25,101.15L400.92,89.90L408.58,78.65L419.60,80.29L430.62,81.92L441.64,83.56L452.65,85.19L463.21,95.25L473.77,105.31L484.33,115.38L494.89,125.44L504.02,128.35L513.15,131.26L522.29,134.17L531.42,137.09L542.18,129.11L552.93,121.14L563.69,113.17L574.44,105.19L586.47,99.86L598.49,94.53L610.52,89.20L622.54,83.86L630.99,91.83L639.44,99.79L647.89,107.76L656.34,115.72L660.77,129.49L665.21,143.25L669.64,157.02L674.08,170.78L681.42,176.53L688.76,182.28L696.10,188.03L703.44,193.77L717.20,191.46L730.96,189.15L744.71,186.83L758.47,184.52L770.98,186.42L783.49,188.32L796.00,190.22L808.50,192.12L811.17,203.98L813.83,215.85L816.49,227.72L819.15,239.59L816.65,253.57L814.15,267.55L811.65,281.54L809.14,295.52L814.06,303.38L818.99,311.25L823.91,319.11L828.83,326.98L842.52,331.44L856.22,335.91L869.92,340.37L883.61,344.83L892.64,352.96L901.67,361.08L910.69,369.20L919.72,377.32L915.24,389.26L910.76,401.20L906.28,413.14L901.80,425.08L893.36,436.03L884.93,446.98L876.50,457.93L868.07,468.88L870.04,478.13L872.02,487.38L873.99,496.64L875.97,505.89L886.17,516.52L896.37,527.15L906.57,537.79L916.77,548.42L919.56,559.75L922.35,571.09L925.14,582.42L927.93,593.75L917.28,601.78L906.64,609.80L895.99,617.83L885.34,625.85L873.32,631.60L861.30,637.36L849.27,643.11L837.25,648.86L835.79,658.61L834.32,668.35L832.85,678.10L831.38,687.84L835.29,702.26L839.20,716.67L843.11,731.08L847.01,745.49L842.94,756.01L838.87,766.52L834.80,777.04L830.72,787.56L816.91,788.85L803.10,790.13L789.29,791.41L775.47,792.70L762.73,792.58L749.98,792.45L737.24,792.33L724.49,792.21L719.26,801.22L714.02,810.23L708.79,819.24L703.55,828.25L699.94,842.79L696.32,857.34L692.71,871.89L689.09,886.43L679.87,892.45L670.65,898.48L661.43,904.50L652.21,910.52L639.30,904.30L626.38,898.07L613.46,891.85L600.55,885.62L589.65,880.34L578.76,875.07L567.87,869.79L556.98,864.51L548.12,871.21L539.27,877.91L530.42,884.61L521.56,891.30L511.28,902.11L501.01,912.91L490.73,923.71L480.45,934.51L469.56,933.95L458.67,933.38L447.79,932.81L436.90,932.24L428.71,920.03L420.53,907.81L412.34,895.59L404.16,883.37L396.84,874.58L389.51,865.79L382.19,857.00L374.87,848.22L363.34,850.93L351.81,853.65L340.29,856.37L328.76,859.09L314.65,863.21L300.53,867.34L286.42,871.46L272.31,875.59L263.81,868.65L255.31,861.71L246.81,854.77L238.31,847.83L237.29,832.91L236.27,817.99L235.26,803.07L234.24,788.15L231.17,777.79L228.10,767.44L225.03,757.08L221.95,746.73L209.61,744.20L197.27,741.67L184.94,739.14L172.60,736.61L158.67,733.03L144.74,729.46L130.81,725.88L116.88,722.31L114.02,711.47L111.16,700.62L108.30,689.78L105.44,678.94L108.68,672.13L111.93,665.33L115.17,658.53L118.42,651.73L121.66,644.92L124.91,638.12L128.15,631.32L131.40,624.51L132.40,614.32L133.40,604.13L134.41,593.93L135.41,583.74L124.82,575.66L114.23,567.59L103.64,559.52L93.05,551.45L83.30,541.46L73.54,531.47L63.79,521.47L54.04,511.48L58.13,500.62L62.23,489.76L66.33,478.90L70.43,468.04L76.55,463.66L82.67,459.28L88.79,454.90L94.91,450.52L101.03,446.14L107.15,441.75L113.27,437.37L119.39,432.99L123.80,424.21L128.22,415.43L132.63,406.66L137.04,397.88L130.87,385.34L124.71,372.81L118.54,360.28L112.37,347.74L109.50,334.58L106.62,321.42L103.74,308.26L100.86,295.09L110.83,288.21L120.80,281.32L130.77,274.43L140.74,267.54L155.51,265.68L170.29,263.82L185.07,261.96L199.84,260.09L206.85,253.53L213.87,246.98L220.88,240.42L227.89,233.86L228.13,219.34L228.37,204.82L228.61,190.29L228.85,175.77L233.36,163.63L237.87,151.49L242.38,139.36L246.89,127.22L259.58,127.05L272.28,126.87L284.98,126.70L297.68,126.53L311.33,131.69L324.99,136.85L338.64,142.01L352.29,147.17L361.12,143.38L369.94,139.60L378.77,135.81L387.60,132.02L394.78,118.89L401.95,105.76L409.13,92.63L416.31,79.50L426.35,72.18L436.40,64.87L446.44,57.55L456.48,50.23L467.74,57.33L478.99,64.43L490.24,71.53L501.50,78.64L510.98,89.17L520.46,99.71L529.94,110.24L539.41,120.78L549.24,120.24L559.07,119.70L568.90,119.16L578.73,118.62L585.13,114.45L591.52,110.29L597.92,106.12L604.32,101.95L610.72,97.78L617.12,93.61L623.52,89.44L629.92,85.27L641.86,84.92L653.81,84.56L665.76,84.21L677.70,83.85L683.69,96.40L689.67,108.94L695.65,121.49L701.63,134.04L705.23,147.19L708.83,160.34L712.43,173.50L716.03,186.65L725.84,189.78L735.64,192.90L745.45,196.03L755.26,199.15L762.96,198.57L770.65,197.99L778.35,197.40L786.05,196.82L793.75,196.23L801.45,195.65L809.15,195.07L816.85,194.48L826.50,200.86L836.16,207.24L845.81,213.62L855.47,220.00L853.95,234.36L852.42,248.73L850.90,263.09L849.38,277.45L846.97,290.24L844.57,303.03L842.16,315.83L839.76,328.62L848.17,335.56L856.58,342.50L865.00,349.44L873.41,356.38L880.43,359.64L887.44,362.90L894.46,366.15L901.47,369.41L908.49,372.67L915.50,375.92L922.52,379.18L929.53,382.43L933.54,393.03L937.55,403.63L941.56,414.22L945.57,424.82L936.62,436.72L927.66,448.63L918.70,460.54L909.74,472.44L902.53,482.46L895.32,492.48L888.11,502.50L880.89,512.52L886.26,522.83L891.63,533.15L897.00,543.46L902.37,553.78L906.81,560.04L911.26,566.30L915.70,572.56L920.14,578.82L924.59,585.08L929.03,591.34L933.48,597.60L937.92,603.86L934.92,614.71L931.92,625.56L928.92,636.41L925.92,647.26L918.89,650.20L911.85,653.15L904.82,656.09L897.78,659.04L890.75,661.98L883.71,664.93L876.68,667.87L869.65,670.82L859.56,676.67L849.48,682.52L839.39,688.37L829.31,694.23L830.05,706.60L830.79,718.98L831.53,731.36L832.27,743.74L832.94,751.26L833.61,758.79L834.29,766.31L834.96,773.84L835.63,781.36L836.31,788.89L836.98,796.42L837.66,803.94L828.74,810.99L819.82,818.04L810.90,825.09L801.99,832.13L794.31,831.18L786.63,830.23L778.94,829.27L771.26,828.32L763.58,827.37L755.90,826.41L748.22,825.46L740.54,824.50L729.61,825.86L718.69,827.22L707.76,828.58L696.83,829.94L691.97,842.19L687.12,854.43L682.26,866.67L677.40,878.92L671.00,892.21L664.61,905.50L658.21,918.80L651.81,932.09L640.17,932.58L628.52,933.08L616.88,933.57L605.24,934.06L598.97,929.45L592.70,924.83L586.44,920.22L580.17,915.60L573.90,910.98L567.63,906.37L561.36,901.75L555.10,897.14L544.98,894.46L534.86,891.79L524.75,889.12L514.63,886.45L504.38,895.83L494.12,905.21L483.87,914.59L473.61,923.98L461.60,931.74L449.59,939.49L437.57,947.25L425.56,955.01L415.40,948.45L405.25,941.89L395.10,935.33L384.94,928.77L381.68,921.73L378.43,914.69L375.17,907.65L371.91,900.61L368.65,893.57L365.40,886.54L362.14,879.50L358.88,872.46L350.70,866.59L342.51,860.72L334.33,854.85L326.15,848.98L312.15,852.95L298.15,856.92L284.15,860.88L270.14,864.85L256.36,865.02L242.58,865.20L228.80,865.37L215.01,865.54L210.15,853.88L205.29,842.22L200.43,830.56L195.57,818.89L196.03,811.25L196.49,803.61L196.96,795.96L197.42,788.32L197.88,780.68L198.34,773.04L198.81,765.39L199.27,757.75L193.70,749.58L188.14,741.41L182.58,733.23L177.01,725.06L169.61,723.56L162.21,722.06L154.81,720.56L147.42,719.06L140.02,717.56L132.62,716.06L125.22,714.56L117.82,713.06L106.61,706.01L95.41,698.96L84.20,691.91L73.00,684.86L75.54,671.86L78.07,658.87L80.61,645.87L83.15,632.87L90.91,620.06L98.68,607.26L106.44,594.45L114.21,581.65L111.73,572.02L109.26,562.38L106.79,552.75L104.32,543.12L98.32,538.21L92.31,533.29L86.31,528.37L80.30,523.46L74.30,518.54L68.29,513.62L62.28,508.71L56.28,503.79L51.09,492.19L45.90,480.60L40.71,469.00L35.53,457.40L45.14,447.41L54.76,437.41L64.38,427.42L73.99,417.42L86.35,409.82L98.71,402.22L111.07,394.62L123.43,387.02L124.47,376.84L125.51,366.65L126.54,356.46L127.58,346.27L124.58,338.96L121.58,331.65L118.57,324.34L115.57,317.03L112.57,309.72L109.56,302.41L106.56,295.10L103.56,287.79L105.78,275.76L108.00,263.73L110.22,251.70L112.44,239.67L126.48,236.16L140.52,232.66L154.56,229.15L168.60,225.65L182.48,224.42L196.36,223.19L210.24,221.96L224.12,220.73L228.97,211.14L233.82,201.55L238.67,191.97L243.52,182.38L244.43,174.45L245.34,166.53L246.24,158.61L247.15,150.69L248.05,142.77L248.96,134.85L249.87,126.92L250.77,119.00L259.28,110.73L267.78,102.45L276.29,94.17L284.80,85.90L291.96,88.14L299.12,90.38L306.29,92.62L313.45,94.87L320.61,97.11L327.78,99.35L334.94,101.59L342.10,103.83L354.52,108.53L366.94,113.23L379.36,117.92L391.78,122.62L400.38,115.12L408.98,107.63L417.58,100.13L426.19,92.64L430.86,86.18L435.53,79.72L440.20,73.26L444.87,66.80L449.54,60.35L454.21,53.89L458.88,47.43L463.55,40.97L475.08,39.29L486.61,37.61L498.14,35.93L509.67,34.25L514.83,40.01L519.98,45.77L525.14,51.52L530.30,57.28L535.46,63.04L540.61,68.80L545.77,74.56L550.93,80.32L559.73,89.30L568.53,98.29L577.32,107.27L586.12,116.26L597.70,112.53L609.29,108.81L620.87,105.08L632.45,101.35L639.65,98.11L646.84,94.86L654.04,91.61L661.24,88.36L668.43,85.12L675.63,81.87L682.83,78.62L690.02,75.37L700.29,80.82L710.55,86.26L720.82,91.70L731.08,97.15L732.67,104.88L734.27,112.62L735.86,120.35L737.46,128.09L739.05,135.82L740.64,143.56L742.24,151.29L743.83,159.03L747.99,170.15L752.15,181.26L756.31,192.38L760.47,203.50L773.35,204.96L786.23,206.43L799.11,207.89L812.00,209.35L819.71,210.17L827.42,210.99L835.13,211.82L842.84,212.64L850.55,213.46L858.26,214.28L865.98,215.11L873.69,215.93L878.83,226.52L883.97,237.11L889.11,247.70L894.25,258.30L891.77,265.90L889.29,273.51L886.82,281.11L884.34,288.72L881.87,296.32L879.39,303.93L876.91,311.53L874.44,319.14L873.99,330.35L873.55,341.56L873.10,352.77L872.66,363.98L884.35,371.22L896.05,378.45L907.75,385.68L919.45,392.91L925.48,397.47L931.51,402.02L937.54,406.57L943.58,411.12L949.61,415.68L955.64,420.23L961.67,424.78L967.71,429.33L965.63,441.26L963.55,453.18L961.47,465.11L959.39,477.03L953.50,482.49L947.60,487.94L941.71,493.39L935.82,498.84L929.93,504.30L924.04,509.75L918.15,515.20L912.25,520.65L907.92,530.42L903.59,540.18L899.26,549.95L894.93,559.71L902.65,571.97L910.37,584.24L918.09,596.50L925.81,608.76L931.14,622.38L936.47,636.00L941.80,649.63L947.13,663.25L938.23,672.15L929.33,681.04L920.43,689.94L911.53,698.83L903.79,700.78L896.05,702.72L888.30,704.66L880.56,706.61L872.82,708.55L865.08,710.49L857.34,712.44L849.60,714.38L842.36,721.73L835.11,729.09L827.87,736.44L820.63,743.79L821.34,751.33L822.06,758.86L822.77,766.40L823.48,773.93L824.19,781.47L824.91,789.00L825.62,796.54L826.33,804.07L823.66,817.90L820.99,831.73L818.32,845.56L815.65,859.39L802.71,861.82L789.78,864.26L776.84,866.69L763.91,869.13L756.28,867.21L748.65,865.30L741.03,863.39L733.40,861.47L725.78,859.56L718.15,857.65L710.53,855.73L702.90,853.82L693.71,858.20L684.51,862.57L675.32,866.94L666.12,871.32L663.18,878.58L660.25,885.85L657.31,893.11L654.37,900.38L651.44,907.64L648.50,914.91L645.57,922.17L642.63,929.44L633.24,939.16L623.84,948.89L614.45,958.61L605.05,968.34L592.34,962.98L579.62,957.63L566.90,952.28L554.19,946.92L548.46,941.82L542.74,936.71L537.01,931.61L531.29,926.50L525.56,921.40L519.84,916.29L514.11,911.19L508.39,906.08L498.14,907.08L487.89,908.07L477.64,909.06L467.39,910.06L461.24,915.23L455.08,920.40L448.93,925.57L442.77,930.74L436.62,935.91L430.46,941.08L424.31,946.25L418.15,951.42L405.46,954.14L392.77,956.85L380.08,959.57L367.38,962.29L359.20,950.39L351.03,938.49L342.85,926.59L334.67,914.68L329.30,900.86L323.93,887.03L318.56,873.21L313.18,859.38L302.89,856.66L292.59,853.93L282.29,851.21L271.99,848.49L263.98,850.13L255.98,851.76L247.98,853.40L239.98,855.03L231.97,856.67L223.97,858.31L215.97,859.94L207.97,861.58L196.42,856.76L184.87,851.94L173.33,847.12L161.78,842.30L161.45,834.78L161.11,827.27L160.77,819.75L160.43,812.23L160.09,804.72L159.76,797.20L159.42,789.69L159.08,782.17L160.35,768.01L161.63,753.85L162.90,739.69L164.17,725.53L155.11,718.93L146.04,712.33L136.97,705.73L127.91,699.13L120.06,696.67L112.22,694.21L104.37,691.75L96.52,689.29L88.68,686.83L80.83,684.37L72.99,681.91L65.14,679.45L58.72,669.12L52.30,658.78L45.88,648.45L39.46,638.12L43.20,631.28L46.94,624.44L50.67,617.61L54.41,610.77L58.15,603.94L61.89,597.10L65.63,590.26L69.37,583.43L76.28,571.80L83.19,560.17L90.10,548.54L97.01,536.92L90.77,526.76L84.52,516.61L78.27,506.45L72.02,496.30L66.42,490.31L60.81,484.33L55.20,478.34L49.59,472.36L43.99,466.37L38.38,460.39L32.77,454.40L27.16,448.42L28.03,436.47L28.90,424.52L29.77,412.57L30.64,400.61L37.53,396.53L44.42,392.44L51.31,388.35L58.20,384.26L65.09,380.18L71.98,376.09L78.86,372.00L85.75,367.91L96.29,360.65L106.82,353.38L117.36,346.12L127.89,338.85L126.09,326.26L124.30,313.67L122.50,301.08L120.70,288.49L118.86,280.60L117.01,272.70L115.16,264.81L113.31,256.92L111.46,249.02L109.62,241.13L107.77,233.23L105.92,225.34L113.69,216.21L121.46,207.08L129.24,197.95L137.01,188.82L145.17,188.73L153.34,188.65L161.51,188.56L169.68,188.48L177.84,188.39L186.01,188.31L194.18,188.22L202.34,188.14L214.20,185.85L226.06,183.55L237.91,181.26L249.77,178.97L253.60,165.98L257.42,152.99L261.25,140.00L265.07,127.01L267.44,119.42L269.80,111.84L272.17,104.25L274.54,96.66L276.90,89.07L279.27,81.48L281.64,73.90L284.00,66.31L295.86,63.47L307.72,60.63L319.57,57.79L331.43,54.94L338.65,58.94L345.87,62.94L353.09,66.94L360.31,70.94L367.54,74.93L374.76,78.93L381.98,82.93L389.20,86.93L400.39,89.22L411.58,91.52L422.77,93.81L433.97,96.10L443.54,85.42L453.11,74.74L462.68,64.06L472.25,53.38L478.03,48.24L483.82,43.11L489.60,37.98L495.38,32.84L501.17,27.71L506.95,22.58L512.74,17.45L518.52,12.31L530.16,17.06L541.80,21.80L553.44,26.55L565.08,31.29L569.45,38.30L573.83,45.32L578.20,52.33L582.58,59.34L586.95,66.36L591.33,73.37L595.71,80.39L600.08,87.40L609.23,93.33L618.37,99.27L627.52,105.21L636.67,111.14L643.66,108.33L650.66,105.52L657.66,102.71L664.65,99.90L671.65,97.09L678.65,94.27L685.64,91.46L692.64,88.65L707.37,86.09L722.10,83.54L736.82,80.98L751.55,78.43L758.65,89.42L765.76,100.41L772.86,111.41L779.96,122.40L780.45,130.59L780.93,138.77L781.42,146.96L781.90,155.15L782.38,163.33L782.87,171.52L783.35,179.71L783.84,187.89L790.14,196.39L796.43,204.89L802.73,213.39L809.03,221.88L816.86,222.57L824.70,223.26L832.53,223.96L840.36,224.65L848.19,225.34L856.02,226.03L863.85,226.72L871.68,227.41L884.96,232.94L898.23,238.47L911.50,244.00L924.77,249.53L924.47,263.23L924.16,276.93L923.86,290.63L923.56,304.32L920.19,311.65L916.83,318.97L913.46,326.30L910.09,333.62L906.73,340.94L903.36,348.27L900.00,355.59L896.63,362.92L899.63,372.97L902.64,383.02L905.64,393.08L908.64,403.13L915.48,407.50L922.33,411.88L929.17,416.25L936.02,420.62L942.86,425.00L949.71,429.37L956.55,433.74L963.40,438.12L971.13,449.54L978.87,460.96L986.61,472.38L994.35,483.80L986.20,495.63L978.05,507.45L969.90,519.28L961.76,531.10L955.56,535.91L949.35,540.72L943.15,545.53L936.95,550.34L930.75,555.16L924.55,559.97L918.35,564.78L912.15,569.59L911.54,580.24L910.92,590.88L910.30,601.53L909.68,612.18L913.75,619.43L917.83,626.67L921.90,633.92L925.98,641.17L930.05,648.41L934.12,655.66L938.20,662.91L942.27,670.16L942.28,683.41L942.28,696.66L942.28,709.91L942.29,723.16L935.37,726.08L928.46,729.01L921.54,731.93L914.63,734.86L907.72,737.78L900.80,740.71L893.89,743.63L886.97,746.56L879.54,747.99L872.10,749.42L864.67,750.86L857.23,752.29L849.80,753.72L842.36,755.15L834.93,756.59L827.49,758.02L823.01,768.15L818.53,778.29L814.05,788.43L809.57,798.57L809.69,806.99L809.80,815.42L809.91,823.85L810.02,832.28L810.13,840.71L810.24,849.14L810.35,857.57L810.46,865.99L803.15,876.49L795.83,886.98L788.51,897.47L781.19,907.96L773.47,906.76L765.75,905.56L758.03,904.36L750.31,903.16L742.59,901.96L734.87,900.76L727.15,899.56L719.43,898.36L705.45,894.53L691.48,890.71L677.50,886.89L663.53,883.06L655.21,891.29L646.89,899.52L638.57,907.74L630.26,915.97L626.24,923.42L622.22,930.87L618.21,938.33L614.19,945.78L610.17,953.24L606.16,960.69L602.14,968.14L598.12,975.60L586.37,979.76L574.61,983.91L562.86,988.07L551.11,992.23L544.91,987.04L538.72,981.85L532.52,976.67L526.33,971.48L520.14,966.29L513.94,961.11L507.75,955.92L501.55,950.73L491.12,941.76L480.69,932.78L470.25,923.81L459.82,914.84L448.28,919.52L436.74,924.20L425.20,928.88L413.66,933.56L406.53,938.04L399.39,942.52L392.25,947.00L385.11,951.48L377.97,955.96L370.84,960.44L363.70,964.92L356.56,969.40L344.75,965.88L332.95,962.35L321.14,958.83L309.34,955.30L306.56,947.49L303.79,939.68L301.02,931.87L298.24,924.05L295.47,916.24L292.70,908.43L289.92,900.62L287.15,892.81L281.69,881.00L276.22,869.20L270.76,857.40L265.29,845.59L252.02,845.21L238.75,844.83L225.47,844.45L212.20,844.07L203.89,844.36L195.58,844.66L187.27,844.95L178.96,845.25L170.65,845.55L162.34,845.84L154.03,846.14L145.72,846.43L138.25,836.57L130.78,826.70L123.32,816.84L115.85,806.98L117.37,798.68L118.90,790.38L120.43,782.09L121.95,773.79L123.48,765.50L125.00,757.20L126.53,748.90L128.05,740.61L127.75,728.34L127.44,716.07L127.13,703.80L126.82,691.53L114.17,685.25L101.52,678.97L88.87,672.69L76.21,666.41L69.07,662.52L61.92,658.62L54.78,654.73L47.63,650.84L40.49,646.94L33.34,643.05L26.20,639.16L19.06,635.27L18.82,622.65L18.58,610.03L18.34,597.41L18.10,584.79L23.55,578.26L29.01,571.73L34.46,565.20L39.92,558.67L45.37,552.14L50.82,545.62L56.28,539.09L61.73,532.56L65.87,521.69L70.00,510.83L74.14,499.96L78.27,489.10L69.08,477.32L59.89,465.54L50.70,453.77L41.51,441.99L37.91,435.24L34.31,428.50L30.71,421.75L27.11,415.01L23.50,408.26L19.90,401.52L16.30,394.77L12.70,388.03"/>
</svg>
